<?xml version="1.0" encoding="UTF-8" standalone="no"?>
<svg
   width="42"
   zoomAndPan="magnify"
   viewBox="0 0 31.5 29.999999"
   height="40"
   preserveAspectRatio="xMidYMid"
   version="1.0"
   id="svg35"
   sodipodi:docname="favicontano.svg"
   inkscape:version="1.3.2 (091e20e, 2023-11-25, custom)"
   xmlns:inkscape="http://www.inkscape.org/namespaces/inkscape"
   xmlns:sodipodi="http://sodipodi.sourceforge.net/DTD/sodipodi-0.dtd"
   xmlns="http://www.w3.org/2000/svg"
   xmlns:svg="http://www.w3.org/2000/svg">
  <sodipodi:namedview
     id="namedview35"
     pagecolor="#ffffff"
     bordercolor="#000000"
     borderopacity="0.25"
     inkscape:showpageshadow="2"
     inkscape:pageopacity="0.0"
     inkscape:pagecheckerboard="0"
     inkscape:deskcolor="#d1d1d1"
     inkscape:zoom="6.216"
     inkscape:cx="32.416345"
     inkscape:cy="37.403475"
     inkscape:window-width="1920"
     inkscape:window-height="991"
     inkscape:window-x="-9"
     inkscape:window-y="-9"
     inkscape:window-maximized="1"
     inkscape:current-layer="svg35" />
  <defs
     id="defs5">
    <g
       id="g1" />
    <clipPath
       id="f9d8e73a56">
      <path
         d="m 242,209 h 49.28516 v 33 H 242 Z m 0,0"
         clip-rule="nonzero"
         id="path1" />
    </clipPath>
    <clipPath
       id="724d384725">
      <path
         d="M 83.535156,209 H 133 v 33 H 83.535156 Z m 0,0"
         clip-rule="nonzero"
         id="path2" />
    </clipPath>
    <clipPath
       id="1bbeaa3926">
      <path
         d="m 104,218 h 81 v 42.5625 h -81 z m 0,0"
         clip-rule="nonzero"
         id="path3" />
    </clipPath>
    <clipPath
       id="7cdcc4c4fb">
      <path
         d="m 145,203 h 126 v 57.5625 H 145 Z m 0,0"
         clip-rule="nonzero"
         id="path4" />
    </clipPath>
    <clipPath
       id="1d511750d3">
      <path
         d="M 125,79.0625 H 246 V 172 H 125 Z m 0,0"
         clip-rule="nonzero"
         id="path5" />
    </clipPath>
  </defs>
  <g
     clip-path="url(#f9d8e73a56)"
     id="g6"
     transform="matrix(0.15162737,0,0,0.16567688,-12.666802,-13.11223)">
    <path
       fill="#ffbd59"
       d="m 274.44141,209.30078 c -3.3086,4.08203 -6.61719,8.16016 -9.92969,12.23828 -0.32813,0.41016 -0.66406,0.81641 -0.99219,1.22656 -0.16016,0.19922 -0.32031,0.39454 -0.48047,0.58985 h -0.043 c -0.29687,0.004 -0.58984,0.008 -0.88672,0.0156 -6.93359,0.10938 -13.59375,0.76172 -19.91015,1.875 9.60547,4.27344 18.68359,9.73828 26.93359,16.40625 0.63672,-5.90234 0.73047,-11.97656 0.25781,-18.16015 7.03907,-1.27344 14.41407,-2.0586 22.06641,-2.29297 -5.41016,-4.3711 -11.09766,-8.33594 -17.01562,-11.89844"
       fill-opacity="1"
       fill-rule="nonzero"
       id="path6" />
  </g>
  <path
     fill="#ffbd59"
     d="m 24.387138,22.47528 c -0.22324,0.4362 -0.44602,0.8711 -0.66932,1.3073 0.80375,-0.1728 1.6454,-0.29253 2.51729,-0.35271 -0.60119,-0.35077 -1.21838,-0.66918 -1.84797,-0.95459"
     fill-opacity="1"
     fill-rule="nonzero"
     id="path7"
     style="stroke-width:0.158496" />
  <g
     clip-path="url(#724d384725)"
     id="g8"
     transform="matrix(0.15162737,0,0,0.16567688,-12.666802,-13.11223)">
    <path
       fill="#ffbd59"
       d="m 105.51172,224.78125 c -0.36719,5.73437 -0.24219,11.37891 0.34766,16.87109 8.2539,-6.66797 17.32812,-12.13281 26.93749,-16.40625 -6.3164,-1.10937 -12.97265,-1.76172 -19.90624,-1.875 -0.29688,-0.004 -0.59766,-0.008 -0.89454,-0.0117 h -0.0391 c -0.16406,-0.19921 -0.32422,-0.39453 -0.48437,-0.59375 -0.32813,-0.41015 -0.66016,-0.8164 -0.99219,-1.22656 -3.30859,-4.07812 -6.61719,-8.15625 -9.92969,-12.23828 -5.914061,3.5625 -11.605468,7.52734 -17.011718,11.89844 7.652344,0.23437 15.023438,1.01953 22.062498,2.29297 -0.0352,0.42968 -0.0625,0.86328 -0.0898,1.28906"
       fill-opacity="1"
       fill-rule="nonzero"
       id="path8" />
  </g>
  <path
     fill="#ffbd59"
     d="m 7.8076276,23.78258 c -0.22263,-0.43555 -0.44602,-0.8711 -0.66929,-1.3073 -0.62962,0.28541 -1.24619,0.60382 -1.84857,0.95459 0.87304,0.0602 1.71411,0.17991 2.51786,0.35271"
     fill-opacity="1"
     fill-rule="nonzero"
     id="path9"
     style="stroke-width:0.158496" />
  <path
     fill="#ffbd59"
     d="m 20.104258,21.85205 c 0.31153,-0.20645 0.62604,-0.41678 0.94291,-0.63358 -0.8683,-0.22263 -1.75139,-0.38895 -2.64398,-0.49961 l 1.70107,1.13319"
     fill-opacity="1"
     fill-rule="nonzero"
     id="path10"
     style="stroke-width:0.158496" />
  <path
     fill="#ffbd59"
     d="m 22.193268,21.73427 -0.0983,-0.22069 c -0.0153,-0.005 -0.0305,-0.009 -0.0455,-0.0129 l -0.006,-0.003 c -0.0638,-0.0201 -0.12857,-0.0395 -0.19301,-0.0589 l 0.0932,0.20903 c -0.35361,0.24852 -0.70423,0.48991 -1.05133,0.72743 l 0.19178,0.12879 c 0.36369,-0.24852 0.73388,-0.50545 1.11058,-0.77014"
     fill-opacity="1"
     fill-rule="nonzero"
     id="path11"
     style="stroke-width:0.158496" />
  <g
     clip-path="url(#1bbeaa3926)"
     id="g12"
     transform="matrix(0.15162737,0,0,0.16567688,-12.666802,-13.11223)">
    <path
       fill="#ffbd59"
       d="m 149.25,250.66406 c -18.98828,6.76953 -31.24219,8.1875 -38.17969,8.1875 -1.94922,0 -3.40234,-0.11328 -4.39062,-0.23437 0.94531,-1.92188 1.98437,-3.78907 3.10156,-5.57032 6.72656,0 18.66406,-1.3789 37.33984,-7.9414 9.21094,-3.23438 19.04297,-7.375 29.44532,-12.39453 -7.80469,-4.3086 -15.86719,-9.04688 -24.17579,-14.21485 l -22.59375,13.76953 c 0,0 -11.54296,5.25 -20.65624,19.41016 -1.54688,2.40234 -3.02344,5.0625 -4.35938,8 0,0 1.98438,0.54297 6.28906,0.54297 10.125,0 33.08203,-3.03516 73.14063,-23.38281 -0.48047,-0.25391 -0.96485,-0.50782 -1.44922,-0.76953 -11.89453,6.0039 -23.08985,10.88281 -33.51172,14.59765"
       fill-opacity="1"
       fill-rule="nonzero"
       id="path12" />
  </g>
  <path
     fill="#ffbd59"
     d="m 25.903388,14.01153 0.006,-0.005 c 0.13437,-0.0815 0.29806,-0.0162 0.36546,0.14562 0.0663,0.1605 0.0153,0.354 -0.11422,0.43749 l -0.006,0.005 c -0.13376,0.0802 -0.29745,0.0149 -0.36427,-0.14821 -0.0657,-0.15791 -0.0153,-0.35206 0.11482,-0.43554 z m 2.54569,-1.5448 0.006,-0.004 c 0.13376,-0.0803 0.29745,-0.0155 0.36427,0.1469 0.0669,0.1605 0.0153,0.35401 -0.1136,0.4375 l -0.006,0.004 c -0.13559,0.0828 -0.29867,0.0155 -0.36723,-0.14691 -0.0663,-0.15921 -0.0153,-0.35271 0.11544,-0.43749 z m -4.77447,3.63 -0.006,0.004 c -0.13376,0.0822 -0.29745,0.0155 -0.36487,-0.14755 -0.0663,-0.15791 -0.0153,-0.35142 0.11421,-0.43555 l 0.006,-0.004 c 0.13437,-0.0815 0.29745,-0.0162 0.36546,0.14561 0.0657,0.15985 0.0153,0.35271 -0.11422,0.43749 z m 0.18476,-1.9234 -2.28922,1.4995 c 0.1417,0.0311 0.28249,0.0628 0.4211,0.0958 0.95953,0.22457 1.90837,0.5035 2.83235,0.83162 0.52359,-0.25951 1.0863,-0.58051 1.62586,-0.92999 0.4531,-0.29382 0.88785,-0.6064 1.27285,-0.92028 0.14751,-0.12167 0.29257,-0.22651 0.43237,-0.31647 1.24085,-0.80444 2.12871,-0.49833 2.12871,-0.49833 0,0 0.88785,-1.4432 0.41875,-2.94141 0,0 -1.83374,-0.0679 -6.6337,3.04237 -0.0699,0.046 -0.13865,0.09 -0.20919,0.1372"
     fill-opacity="1"
     fill-rule="nonzero"
     id="path13"
     style="stroke-width:0.158496" />
  <g
     clip-path="url(#7cdcc4c4fb)"
     id="g14"
     transform="matrix(0.15162737,0,0,0.16567688,-12.666802,-13.11223)">
    <path
       fill="#ffbd59"
       d="M 245.19531,232.26562 219.73437,216.75 l -1.27734,-0.78516 -5.22656,-3.18359 -15.09375,-9.19141 c -3.53516,-0.24609 -7.08203,-0.37109 -10.63672,-0.37109 -10.79297,0 -21.58203,1.13281 -32.0625,3.375 -0.91797,0.19141 -1.85938,0.39844 -2.80078,0.62109 3.07812,1.91407 6.12109,3.76953 9.1289,5.56641 8.89063,5.31641 17.47657,10.13281 25.73047,14.4375 2.07813,1.08203 4.125,2.12891 6.16016,3.14453 0.48828,0.24219 0.97656,0.48828 1.45703,0.72656 11.63281,5.75391 22.57422,10.4375 32.76172,14.01563 18.67578,6.5625 30.61328,7.94531 37.33594,7.94531 1.11718,1.77734 2.16015,3.64453 3.10547,5.56641 -0.98829,0.12109 -2.44141,0.23828 -4.39063,0.23828 -6.9375,0 -19.19141,-1.42188 -38.18359,-8.19141 -11.37891,-4.05078 -23.67578,-9.49609 -36.80078,-16.27734 -0.47657,-0.2461 -0.96094,-0.4961 -1.44532,-0.7461 -2.03125,-1.0625 -4.08203,-2.15234 -6.15625,-3.27734 -7.98437,-4.33203 -16.26172,-9.13281 -24.80468,-14.39844 -3.22266,-1.98047 -6.48829,-4.03515 -9.78907,-6.15625 l 0.60938,-1.26172 c -0.125,0.0312 -0.25,0.0625 -0.3711,0.10157 -0.41796,0.11328 -0.83593,0.23047 -1.2539,0.35156 l -0.64063,1.32812 c 3.47266,2.24219 6.86328,4.37891 10.17188,6.42188 8.76953,5.41797 16.97265,10.16797 24.61719,14.33984 2.09765,1.14063 4.15625,2.2461 6.17187,3.29688 0.48438,0.25781 0.96875,0.51172 1.44531,0.75781 42.09766,21.875 66.02735,25.07422 76.42969,25.07422 4.30078,0 6.28516,-0.54297 6.28516,-0.54297 -1.33985,-2.9375 -2.8125,-5.59766 -4.35938,-8 -9.11328,-14.16406 -20.65625,-19.41016 -20.65625,-19.41016"
       fill-opacity="1"
       fill-rule="nonzero"
       id="path14" />
  </g>
  <path
     fill="#ffbd59"
     d="m 2.7049976,12.60975 c 0.0479,-0.1152 0.14383,-0.18121 0.24339,-0.18121 0.0409,0 0.0831,0.011 0.12154,0.0343 l 0.006,0.004 c 0.12979,0.0848 0.1811,0.27829 0.11483,0.43749 -0.048,0.1152 -0.14445,0.18251 -0.24401,0.18251 -0.0415,0 -0.0828,-0.011 -0.12307,-0.0356 l -0.006,-0.004 c -0.12979,-0.0835 -0.18109,-0.27699 -0.11421,-0.43749 z m 2.54687,1.54287 c 0.0473,-0.11391 0.14262,-0.17992 0.24217,-0.17992 0.0415,0 0.0828,0.011 0.12246,0.0343 l 0.006,0.005 c 0.12918,0.0835 0.18079,0.27764 0.11422,0.43555 -0.0467,0.11585 -0.14384,0.18315 -0.2434,0.18315 -0.0403,0 -0.0824,-0.0123 -0.12093,-0.0349 l -0.006,-0.005 c -0.12979,-0.0835 -0.18018,-0.27699 -0.1136,-0.43749 z m 2.48528,1.50662 c 0.0473,-0.11455 0.14261,-0.18056 0.24217,-0.18056 0.0415,0 0.0834,0.011 0.12246,0.0349 l 0.006,0.004 c 0.12857,0.0841 0.18018,0.27764 0.1136,0.43555 -0.0473,0.11584 -0.14384,0.18315 -0.24339,0.18315 -0.0403,0 -0.0825,-0.011 -0.12094,-0.0356 l -0.006,-0.004 c -0.12979,-0.0848 -0.18018,-0.27764 -0.11361,-0.43749 z m -6.04024,-1.78103 c 0.3785,0 0.96961,0.0977 1.67444,0.55528 0.13926,0.09 0.28493,0.1948 0.43176,0.31647 0.38558,0.31388 0.82033,0.62647 1.27344,0.92028 0.54017,0.34948 1.10226,0.67112 1.62643,0.92999 1.05903,-0.37536 2.15183,-0.6873 3.25409,-0.92675 l -2.29041,-1.50015 c -0.0705,-0.0472 -0.13986,-0.0913 -0.2098,-0.1372 -4.59859,-2.98089 -6.47557,-3.04238 -6.62362,-3.04238 -0.006,0 -0.009,0 -0.009,0 -0.46911,1.49822 0.41933,2.94142 0.41933,2.94142 0,0 0.16582,-0.057 0.45429,-0.057"
     fill-opacity="1"
     fill-rule="nonzero"
     id="path15"
     style="stroke-width:0.158496" />
  <g
     clip-path="url(#1d511750d3)"
     id="g16"
     transform="matrix(0.15162737,0,0,0.16567688,-12.666802,-13.11223)">
    <path
       fill="#ffbd59"
       d="m 126.91797,135.76562 c 0.95703,2.73829 2.60547,5.19532 4.58984,7.25391 2,2.05859 4.35156,3.73047 6.89063,4.96875 0.3164,0.14844 0.64062,0.30078 0.96093,0.44141 0.32422,0.13281 0.64844,0.27734 0.98047,0.39843 0.32813,0.125 0.65625,0.25 0.99219,0.35938 l 0.50391,0.16016 0.23828,0.0781 0.10937,0.0234 0.22266,0.0586 c 0.29687,0.0742 0.59375,0.15235 0.88672,0.22656 l 0.4414,0.10938 0.11329,0.0312 0.13281,0.0234 0.26562,0.0508 c 0.35157,0.0664 0.70313,0.1289 1.0586,0.1875 0.34765,0.0625 0.70703,0.13672 1.03125,0.15625 2.26172,0.27344 4.46484,0.25781 6.51953,0.0156 l 1.24609,15.21485 0.0156,0.26562 0.28125,3.40235 2.72656,-1.58985 c 0.0664,-0.0391 0.20312,-0.0977 0.3125,-0.15234 l 0.35937,-0.16016 c 0.25,-0.10547 0.4961,-0.20703 0.7461,-0.3125 0.5039,-0.20312 1.01953,-0.39844 1.53906,-0.58594 1.03516,-0.38281 2.08984,-0.73046 3.16406,-1.05078 1.06641,-0.32812 2.14453,-0.625 3.23438,-0.90234 0.54687,-0.14063 1.08984,-0.27734 1.64062,-0.40234 0.54688,-0.13282 1.09375,-0.25782 1.64453,-0.3711 0.55079,-0.11719 1.10547,-0.23828 1.66016,-0.33984 0.55469,-0.10938 1.10938,-0.22266 1.66797,-0.31641 1.10937,-0.19922 2.22656,-0.37109 3.35156,-0.53906 l 1.6836,-0.23438 1.6875,-0.19531 c 0.5664,-0.0742 1.13671,-0.11719 1.70312,-0.17578 0.5625,-0.0547 1.12891,-0.11719 1.69531,-0.15625 l 1.70703,-0.13281 1.70313,-0.0977 0.85156,-0.043 0.85547,-0.0391 1.70703,-0.0547 1.71875,-0.0234 c 0.57031,-0.0117 1.14063,-0.0195 1.70703,-0.0117 l 1.71485,0.004 c 0.57422,0.004 1.14062,0.0273 1.71484,0.043 0.57031,0.0195 1.14063,0.0195 1.71484,0.0508 l 1.71094,0.0781 0.86328,0.0391 2.56641,0.17578 c 1.14062,0.082 2.27734,0.19531 3.42187,0.29688 l 3.41797,0.37109 0.0391,-0.21094 -3.38672,-0.61328 c -1.13282,-0.17969 -2.26953,-0.37109 -3.40625,-0.53515 l -1.70703,-0.23829 -0.85938,-0.11718 -0.85547,-0.10547 -1.71484,-0.19922 c -0.57422,-0.0703 -1.14844,-0.11719 -1.71875,-0.17188 -0.57813,-0.0547 -1.15235,-0.12109 -1.72656,-0.16406 l -1.72266,-0.1289 c -0.57422,-0.0469 -1.15625,-0.082 -1.73047,-0.11329 l -1.73047,-0.0977 -1.73437,-0.0547 -0.86719,-0.0312 -0.875,-0.0117 -1.73438,-0.0195 -1.73828,0.0117 c -0.58203,-0.004 -1.16015,0.0195 -1.73828,0.0312 -0.58594,0.0156 -1.16797,0.0234 -1.74219,0.0586 l -1.74218,0.082 -1.73828,0.11719 c -1.16407,0.0898 -2.32813,0.1836 -3.48829,0.3086 -0.57812,0.0547 -1.15625,0.1289 -1.73828,0.20312 -0.58203,0.0703 -1.15625,0.14453 -1.73828,0.22656 -0.58203,0.0781 -1.15625,0.17188 -1.73047,0.26563 -0.58203,0.0937 -1.15625,0.19531 -1.73828,0.30078 -1.15234,0.20703 -2.30469,0.44531 -3.45703,0.70312 -1.14453,0.26172 -2.28906,0.5625 -3.43359,0.88282 -0.11328,0.0352 -0.23047,0.0625 -0.34766,0.10156 l 0.40234,-8.77734 c 0.52735,-0.14063 1.0625,-0.28125 1.60547,-0.42579 0.58985,-0.15625 1.19141,-0.28906 1.79688,-0.4375 0.61328,-0.13671 1.21875,-0.30078 1.83594,-0.42187 0.62109,-0.13281 1.24218,-0.26172 1.86328,-0.39453 l 0.92968,-0.19141 c 0.3125,-0.0625 0.6211,-0.10937 0.9375,-0.16797 0.6211,-0.11328 1.24219,-0.22656 1.85938,-0.33203 0.30469,-0.0547 0.61328,-0.11719 0.92578,-0.16015 0.30078,-0.0469 0.60547,-0.0898 0.91016,-0.13282 0.60547,-0.0898 1.21093,-0.17578 1.80078,-0.26172 0.29297,-0.043 0.58984,-0.0859 0.8789,-0.125 0.28907,-0.0352 0.58204,-0.0625 0.86719,-0.0937 0.57031,-0.0664 1.12891,-0.1289 1.67578,-0.1875 0.54297,-0.0547 1.07422,-0.125 1.58985,-0.16406 0.51172,-0.0352 1.00781,-0.0742 1.48437,-0.10937 0.48047,-0.0352 0.9336,-0.0664 1.375,-0.0977 0.4375,-0.0312 0.84766,-0.0703 1.23828,-0.0742 0.77735,-0.0273 1.46094,-0.0508 2.01953,-0.0664 1.11719,-0.0391 1.75782,-0.0625 1.75782,-0.0625 L 186.25,150 c 0,0 -0.64063,-0.0391 -1.76563,-0.10547 -0.55859,-0.0352 -1.23828,-0.0703 -2.01953,-0.12109 -0.39062,-0.0273 -0.80859,-0.0273 -1.25,-0.0352 -0.4375,-0.0117 -0.89843,-0.0156 -1.3789,-0.0273 -0.48438,-0.0117 -0.98438,-0.0156 -1.50782,-0.0312 -0.52343,-0.008 -1.05468,0.0117 -1.60937,0.0195 -0.55469,0.0117 -1.12109,0.0156 -1.71094,0.0312 -0.28515,0.008 -0.57812,0.008 -0.875,0.0156 -0.30078,0.0156 -0.59765,0.0273 -0.90234,0.043 -0.59766,0.0352 -1.21875,0.0625 -1.83594,0.0977 -0.31641,0.0156 -0.625,0.0352 -0.94531,0.0469 -0.3086,0.0195 -0.62891,0.0547 -0.94141,0.0742 -0.63281,0.0586 -1.27344,0.11328 -1.91797,0.16406 -0.3164,0.0273 -0.64062,0.0469 -0.96093,0.0859 l -0.96485,0.10547 c -0.64062,0.0781 -1.28515,0.15234 -1.92578,0.22656 -0.64062,0.0703 -1.27344,0.17188 -1.91016,0.25782 -0.6289,0.0898 -1.26171,0.17187 -1.87109,0.27734 -0.32031,0.0508 -0.62891,0.10156 -0.9375,0.15625 l 0.10547,-2.35547 c 0.14062,-0.0469 0.28906,-0.0977 0.43359,-0.14062 0.24219,-0.0781 0.48438,-0.15625 0.72266,-0.25 1.89453,-0.69922 3.53516,-1.52344 4.94141,-2.29688 0.35156,-0.19922 0.67968,-0.40625 1,-0.60156 0.3164,-0.19922 0.6289,-0.375 0.91015,-0.57422 0.57422,-0.40234 1.09766,-0.74219 1.54688,-1.08984 0.44922,-0.35938 0.84765,-0.66797 1.1875,-0.94532 0.33984,-0.27734 0.60547,-0.54297 0.83203,-0.74609 0.44531,-0.40234 0.67578,-0.63281 0.67578,-0.63281 l -0.14063,-0.19922 c 0,0 -0.30078,0.11719 -0.87109,0.32812 -0.28125,0.10157 -0.62109,0.25 -1.02734,0.39844 -0.41016,0.14063 -0.875,0.3125 -1.39453,0.50391 -0.51954,0.17187 -1.10157,0.35937 -1.73047,0.5664 -0.63672,0.19141 -1.31641,0.39063 -2.04688,0.58985 -0.36719,0.0898 -0.74219,0.1875 -1.1289,0.28906 -0.19141,0.043 -0.39063,0.10156 -0.58985,0.14453 -0.20312,0.043 -0.40234,0.082 -0.60937,0.125 -0.41016,0.0781 -0.82813,0.1875 -1.25782,0.26172 -0.42968,0.0742 -0.87109,0.14453 -1.32031,0.22266 l -0.0469,0.004 c -0.42969,0.0859 -0.87891,0.125 -1.32813,0.1875 -0.23047,0.0312 -0.46484,0.0625 -0.70312,0.0859 -0.23438,0.0195 -0.47266,0.043 -0.71875,0.0586 -0.96094,0.10547 -1.94922,0.1211 -2.96094,0.14063 -0.30859,0.004 -0.62109,0 -0.9375,-0.0117 -1.72266,-0.0352 -3.48828,-0.23047 -5.23047,-0.60156 -0.27344,-0.043 -0.49609,-0.1211 -0.73437,-0.17969 -0.23829,-0.0586 -0.47266,-0.12109 -0.71485,-0.17969 l -0.26562,-0.0742 -0.10938,-0.0312 -0.42969,-0.14843 c -0.29296,-0.0898 -0.58203,-0.1836 -0.87109,-0.28125 l -0.21875,-0.0664 -0.043,-0.0234 -0.043,-0.0195 -0.36328,-0.14062 c -0.2539,-0.0937 -0.48828,-0.20704 -0.73437,-0.3125 -0.24219,-0.10157 -0.48047,-0.22266 -0.72657,-0.33594 -0.23437,-0.125 -0.47265,-0.2461 -0.71093,-0.3711 -1.88282,-1.02343 -3.65625,-2.32031 -5.15625,-3.83593 -1.48047,-1.51953 -2.6875,-3.2461 -3.4375,-5.0586 -0.375,-0.91015 -0.64063,-1.83593 -0.78907,-2.76172 -0.0781,-0.46875 -0.10937,-0.93359 -0.1289,-1.40234 -0.0156,-0.23047 0,-0.46484 -0.004,-0.69922 0.0156,-0.20703 0.0195,-0.41406 0.0352,-0.61719 -0.004,-0.043 0.0117,-0.13281 0.0195,-0.19921 l 0.0312,-0.21485 0.0586,-0.42578 0.008,-0.0508 c -0.004,0.0117 -0.004,0.0195 -0.0117,0.0312 l 0.0156,-0.082 0.0352,-0.17578 c 0.0195,-0.10938 0.0352,-0.22656 0.0625,-0.33594 0.10547,-0.45312 0.21484,-0.90234 0.36719,-1.33984 0.29296,-0.87891 0.6914,-1.72266 1.14843,-2.53907 0.91797,-1.61328 2.11328,-3.04687 3.35547,-4.28515 0.61719,-0.6211 1.26172,-1.1836 1.88672,-1.71094 0.625,-0.52734 1.25391,-0.99219 1.85156,-1.43359 0.14453,-0.10938 0.28907,-0.20703 0.42578,-0.30078 0.0156,0.0312 0.0234,0.0625 0.0391,0.0937 0.0898,0.23046 0.17968,0.46093 0.26562,0.6875 0.0898,0.22265 0.17188,0.4414 0.26172,0.66015 0.082,0.21094 0.18359,0.41406 0.27734,0.6211 0.19141,0.40234 0.3711,0.78515 0.54297,1.15625 0.1875,0.36328 0.3711,0.70312 0.55078,1.02734 0.1836,0.32031 0.33594,0.62891 0.51563,0.90625 0.17187,0.28125 0.34375,0.54297 0.49219,0.78125 0.15625,0.24219 0.29297,0.46875 0.42578,0.67187 0.14453,0.1875 0.26953,0.36719 0.38281,0.51954 0.46875,0.6289 0.71094,0.96093 0.71094,0.96093 l 0.23047,-0.11328 c 0,0 -0.13282,-0.39062 -0.37891,-1.125 -0.0586,-0.17969 -0.12891,-0.38281 -0.20703,-0.60547 -0.0664,-0.22656 -0.14063,-0.46875 -0.21875,-0.73828 -0.14844,-0.52344 -0.34375,-1.11328 -0.49609,-1.80469 -0.0859,-0.33984 -0.17579,-0.69531 -0.26954,-1.07421 -0.0742,-0.375 -0.15234,-0.76954 -0.23437,-1.1875 -0.043,-0.20313 -0.082,-0.41407 -0.12891,-0.625 -0.0312,-0.21485 -0.0664,-0.4336 -0.10156,-0.65625 -0.0312,-0.22266 -0.0703,-0.44532 -0.10547,-0.67579 -0.0352,-0.23437 -0.0703,-0.46875 -0.0859,-0.70703 -0.0156,-0.10937 -0.0273,-0.22265 -0.0391,-0.33593 -0.0391,-0.36719 -0.082,-0.7461 -0.125,-1.12891 -0.008,-0.14063 -0.0117,-0.28125 -0.0195,-0.42578 -0.0234,-0.36719 -0.0391,-0.7461 -0.0586,-1.13281 -0.0312,-1.0586 -0.0352,-2.16797 0.0508,-3.31641 0.0625,-1.14844 0.20703,-2.32813 0.43359,-3.52734 0.0312,-0.14844 0.043,-0.29688 0.082,-0.44922 0.0352,-0.15235 0.0703,-0.30078 0.10547,-0.44922 0.0703,-0.30078 0.14063,-0.60547 0.20703,-0.90625 l 0.0547,-0.23047 0.0703,-0.22656 c 0.043,-0.14844 0.0937,-0.29688 0.13672,-0.44532 0.0937,-0.30468 0.1875,-0.60546 0.28125,-0.91406 0.11328,-0.30078 0.22266,-0.597655 0.33594,-0.902342 0.0586,-0.144532 0.11719,-0.296876 0.17187,-0.449219 0.0586,-0.152344 0.10938,-0.300781 0.1836,-0.449219 0.14062,-0.292969 0.28125,-0.585938 0.41797,-0.886719 0.0664,-0.148437 0.13281,-0.292969 0.20703,-0.445312 l 0.24219,-0.429688 c 0.16406,-0.289062 0.3164,-0.578125 0.47656,-0.867187 l 0.0586,-0.109375 0.008,-0.01172 c 0,0 0.008,-0.01563 0.0156,-0.02734 l 0.0117,-0.01953 0.15234,-0.242187 0.30078,-0.476563 c 0.19141,-0.269531 0.34766,-0.496094 0.54688,-0.761719 0.20703,-0.257812 0.39453,-0.53125 0.625,-0.78125 1.69922,-2.085937 3.9375,-3.898437 6.44922,-5.304687 1.26562,-0.691407 2.59375,-1.285157 3.96875,-1.746094 1.3789,-0.453125 2.79297,-0.78125 4.21484,-0.960937 1.42578,-0.160157 2.85547,-0.191407 4.24219,-0.04297 0.34375,0.04687 0.69531,0.07031 1.03515,0.140625 l 0.51563,0.08984 0.50391,0.109374 c 0.33984,0.06641 0.66406,0.179688 1,0.265626 l 0.0586,0.01562 0.0312,0.0078 c 0.008,0.0039 0.0117,0.0039 0.0156,0.0039 0.0117,0.0078 0.0117,0.0078 0.0117,0.0078 l 0.0625,0.01953 0.28907,0.101563 0.58593,0.207031 c 0.3125,0.125 0.57032,0.234375 0.86719,0.351562 0.30859,0.152344 0.62109,0.285157 0.91797,0.445313 0.60156,0.316406 1.19141,0.660156 1.74609,1.050781 1.11719,0.777344 2.16407,1.675781 3.13672,2.671875 0.24219,0.25 0.46875,0.515625 0.70703,0.765625 0.23438,0.261719 0.45703,0.535156 0.6875,0.792969 0.22266,0.269531 0.44532,0.542968 0.66407,0.8125 0.21875,0.28125 0.43359,0.554687 0.64453,0.832031 0.3164,0.417969 0.625,0.847656 0.92578,1.277344 0.27344,0.378906 0.53515,0.761719 0.79687,1.144531 0.22657,0.332031 0.45313,0.664062 0.67578,0.996094 1.51954,2.308594 2.94532,4.585934 4.38282,6.648434 0.71875,1.03125 1.4414,2.01563 2.17578,2.92578 0.72265,0.90625 1.45312,1.75391 2.19922,2.5 0.18359,0.1875 0.36718,0.3711 0.54687,0.55469 0.1836,0.17188 0.35938,0.33984 0.53516,0.50781 0.36328,0.34375 0.72656,0.64063 1.08203,0.94141 0.70312,0.58203 1.40625,1.07031 2.06641,1.46094 1.32421,0.79687 2.49609,1.17578 3.28515,1.36718 0.40235,0.0898 0.70313,0.14063 0.91797,0.16797 0.20703,0.0234 0.30859,0.0391 0.30859,0.0391 l 0.0664,-0.23438 c 0,0 -0.0937,-0.0469 -0.27734,-0.125 -0.19141,-0.0781 -0.45313,-0.21875 -0.79297,-0.39453 -0.67188,-0.36719 -1.60156,-0.98047 -2.59375,-1.94141 -0.4961,-0.48047 -1.01172,-1.04687 -1.52344,-1.69531 -0.26172,-0.32422 -0.52734,-0.67969 -0.78125,-1.03516 -0.13281,-0.1914 -0.26562,-0.3789 -0.40234,-0.57421 -0.12891,-0.19141 -0.25391,-0.39454 -0.38672,-0.58594 -1.05469,-1.61328 -2.08203,-3.53125 -3.13281,-5.69531 -0.52344,-1.09766 -1.0625,-2.23829 -1.62891,-3.425784 -0.55469,-1.195313 -1.16016,-2.433594 -1.80469,-3.714844 -0.19531,-0.386719 -0.39062,-0.773438 -0.59765,-1.160156 0.82812,-0.414063 1.71875,-0.824219 2.66796,-1.214844 0.77735,-0.324219 1.59766,-0.636719 2.44922,-0.9375 0.85938,-0.28125 1.73438,-0.566406 2.65625,-0.8125 0.46094,-0.125 0.92578,-0.238281 1.39844,-0.347656 0.23828,-0.05078 0.46875,-0.105469 0.71094,-0.164063 l 0.72265,-0.140625 c 0.23829,-0.05078 0.48829,-0.08203 0.73047,-0.125 0.25,-0.03906 0.49219,-0.08203 0.74219,-0.113281 0.24219,-0.03125 0.49609,-0.06641 0.74219,-0.105469 0.25,-0.02344 0.5,-0.05469 0.75,-0.07813 1.0039,-0.09766 2.02344,-0.125 3.03515,-0.125 1.01954,0.0039 2.03125,0.09375 3.02735,0.238281 0.25,0.03906 0.5039,0.07031 0.75,0.125 0.24609,0.04688 0.49219,0.08203 0.73437,0.144532 l 0.36719,0.08984 0.16406,0.03906 0.0195,0.0039 0.082,0.02344 0.83203,0.257812 0.42187,0.125 0.30078,0.125 c 0.19141,0.08203 0.39453,0.160156 0.59375,0.242188 0.20313,0.08594 0.41407,0.203125 0.625,0.308594 0.21094,0.09766 0.42578,0.195312 0.61719,0.328124 l 0.59766,0.355469 c 0.1875,0.132813 0.36718,0.277344 0.55078,0.410157 l 0.28515,0.199218 c 0.0859,0.07031 0.16797,0.152344 0.25391,0.230469 l 0.51563,0.449219 c 0.30468,0.347656 0.64843,0.644531 0.92187,1.019531 0.13672,0.183594 0.29688,0.351563 0.42578,0.546875 l 0.39063,0.570312 c 0.48828,0.789063 0.94922,1.609376 1.29297,2.496094 0.19921,0.429688 0.33984,0.890625 0.5,1.335938 0.082,0.222656 0.13281,0.460939 0.19921,0.687499 0.0664,0.23047 0.14063,0.45704 0.19141,0.6875 0.10156,0.47266 0.23438,0.92579 0.30469,1.40235 0.043,0.23437 0.082,0.46484 0.125,0.69922 0.0312,0.23828 0.0664,0.46875 0.0977,0.70312 0.14844,0.92969 0.21485,1.86719 0.25782,2.78125 0.0352,0.45313 0.0352,0.91016 0.0547,1.35547 0.008,0.44922 -0.004,0.89453 -0.004,1.33203 -0.0117,0.4336 -0.0234,0.86719 -0.0352,1.29297 -0.0156,0.13281 -0.0195,0.26563 -0.0273,0.40234 l -0.008,0.004 -0.13672,0.0625 -0.26563,0.125 c -0.35156,0.16797 -0.71094,0.32422 -1.03515,0.52344 -0.33204,0.19531 -0.67188,0.36328 -0.97657,0.57422 -0.30859,0.20312 -0.61328,0.40234 -0.91015,0.59765 -0.28907,0.22266 -0.56641,0.4336 -0.84375,0.64063 -1.07813,0.88281 -2.01953,1.77734 -2.81641,2.68359 -1.60156,1.80469 -2.70703,3.5586 -3.53516,5.02344 -0.83593,1.46875 -1.34765,2.67578 -1.69531,3.5 -0.17578,0.40625 -0.28906,0.73437 -0.36719,0.94531 -0.0859,0.21094 -0.1289,0.32422 -0.1289,0.32422 l 0.23437,0.0977 c 0,0 0.2461,-0.39844 0.71485,-1.16016 0.46875,-0.74219 1.19531,-1.82422 2.17968,-3.12891 0.25391,-0.32812 0.51563,-0.67187 0.8086,-1.01171 0.14844,-0.17579 0.29297,-0.35157 0.44531,-0.53516 0.15625,-0.17578 0.32422,-0.35156 0.48828,-0.53516 0.65625,-0.73047 1.40235,-1.48437 2.2461,-2.23437 0.83593,-0.74219 1.77734,-1.47266 2.82421,-2.14453 0.77344,-0.50782 1.61719,-0.96485 2.51563,-1.34375 0.30859,-0.12891 0.62109,-0.25391 0.93359,-0.36328 0.14063,-0.0508 0.27344,-0.10157 0.41407,-0.14844 0.17578,-0.0586 0.35546,-0.10938 0.53125,-0.16016 0.17968,-0.0508 0.36718,-0.10547 0.53515,-0.14844 0.15235,-0.0312 0.3086,-0.0586 0.46875,-0.0898 0.15625,-0.0234 0.30078,-0.0625 0.47266,-0.0859 0.0273,-0.004 0.0586,-0.008 0.0859,-0.0156 0.14062,-0.0117 0.28125,-0.0312 0.42187,-0.0508 0.33984,-0.0508 0.69141,-0.0547 1.03906,-0.0781 1.39453,-0.0547 2.85938,0.0898 4.3086,0.46485 1.45312,0.36718 2.90234,0.93359 4.28515,1.68359 1.39063,0.74219 2.70703,1.67578 3.89453,2.76953 0.60547,0.53516 1.15625,1.13281 1.69141,1.73828 0.50781,0.6211 1.00781,1.26172 1.42578,1.94922 0.44531,0.67578 0.77735,1.40234 1.11719,2.125 l 0.21094,0.55859 0.10547,0.27735 0.0898,0.28125 0.17187,0.57031 0.12891,0.57031 0.0664,0.28907 c 0.0234,0.0937 0.0273,0.1914 0.0508,0.28906 l 0.0781,0.57812 c 0.0234,0.19141 0.0312,0.39063 0.043,0.58203 0.0156,0.19532 0.0312,0.39063 0.0195,0.58203 l -0.004,0.58594 c -0.008,0.19141 -0.0352,0.38281 -0.0508,0.57813 l -0.0273,0.28906 -0.004,0.0742 v 0.004 l -0.0352,0.15625 -0.11719,0.69141 -0.0664,0.34375 -0.0742,0.26953 -0.14453,0.51953 c -0.0391,0.17188 -0.125,0.35938 -0.19532,0.54297 l -0.19922,0.55469 c -0.0859,0.17969 -0.17578,0.35156 -0.25781,0.53125 -0.0937,0.17187 -0.16015,0.36328 -0.26562,0.52344 -0.21485,0.33203 -0.38672,0.6914 -0.63672,1 -0.91016,1.28515 -2.10547,2.41797 -3.51953,3.29687 -1.41016,0.90235 -2.98828,1.60156 -4.64063,2.11328 -1.66015,0.50391 -3.38281,0.84375 -5.11719,1.02344 -1.62109,0.16406 -3.24609,0.21484 -4.84375,0.14063 -0.11328,-0.004 -0.22265,-0.0117 -0.33593,-0.0156 -1.70313,-0.0937 -3.36719,-0.32031 -4.96094,-0.66406 -0.39844,-0.0977 -0.78906,-0.19141 -1.17578,-0.28906 -0.19922,-0.0586 -0.40235,-0.11719 -0.60547,-0.17188 -0.17969,-0.0547 -0.35938,-0.10547 -0.53906,-0.16797 -0.1836,-0.0625 -0.36719,-0.1289 -0.55469,-0.1914 l -0.27344,-0.0937 -0.26953,-0.10938 c -0.17969,-0.0664 -0.35937,-0.13672 -0.53125,-0.20312 -0.19531,-0.082 -0.39453,-0.16407 -0.58984,-0.24219 -0.76172,-0.31641 -1.51563,-0.62891 -2.25782,-0.9375 -0.375,-0.15625 -0.73828,-0.3086 -1.10546,-0.45703 -0.36719,-0.15235 -0.75,-0.28907 -1.11719,-0.42969 -1.47656,-0.55469 -2.89844,-1.125 -4.28906,-1.57422 -0.69532,-0.23437 -1.3711,-0.47266 -2.04297,-0.6875 -0.66797,-0.20312 -1.32422,-0.40234 -1.96094,-0.60156 -0.32031,-0.0977 -0.63281,-0.19531 -0.95313,-0.28125 -0.3125,-0.082 -0.625,-0.16797 -0.92968,-0.25 -0.61328,-0.16406 -1.20313,-0.32813 -1.79297,-0.46485 -2.32422,-0.55859 -4.39453,-0.88671 -6.11328,-1.0664 -0.42969,-0.0352 -0.83985,-0.0664 -1.22657,-0.10156 -0.38281,-0.008 -0.74609,-0.0117 -1.08593,-0.0234 -0.66797,0.0117 -1.2461,0.043 -1.71094,0.10547 -0.46484,0.0508 -0.8125,0.13672 -1.04688,0.20312 -0.12109,0.0312 -0.21093,0.0664 -0.26562,0.0859 -0.0664,0.0273 -0.0977,0.043 -0.0977,0.043 l 0.10157,0.22656 c 0,0 0.0234,-0.008 0.0742,-0.0195 0.0547,-0.004 0.13672,-0.0273 0.25,-0.0352 0.22266,-0.0273 0.56641,-0.043 1.00782,-0.0273 0.89062,0.0195 2.1914,0.19141 3.8125,0.57422 1.62109,0.38281 3.55468,0.97656 5.73828,1.76172 2.17969,0.8125 4.61328,1.76562 7.21094,2.95703 1.3125,0.5664 2.64843,1.21094 4.03515,1.86328 0.69141,0.32422 1.39063,0.67578 2.11719,1.03516 0.71484,0.35546 1.44922,0.71875 2.18359,1.08203 0.1836,0.0898 0.36719,0.1875 0.55078,0.27343 0.20313,0.0977 0.40625,0.19532 0.61719,0.29297 0.40235,0.20703 0.83203,0.35157 1.25391,0.53516 0.42578,0.16797 0.85937,0.30859 1.29297,0.46484 0.23828,0.0742 0.47656,0.15235 0.71484,0.22266 l 1.50391,21.30078 c -0.64063,-0.13281 -1.27735,-0.25 -1.91797,-0.34766 -0.83594,-0.1289 -1.67188,-0.23828 -2.50391,-0.32421 -0.41406,-0.043 -0.83203,-0.0898 -1.25,-0.11329 -0.41797,-0.0391 -0.83203,-0.0742 -1.25,-0.0898 -0.41797,-0.0273 -0.82812,-0.0508 -1.24609,-0.0586 -0.41797,-0.0195 -0.83594,-0.0312 -1.25,-0.0352 -0.82422,-0.0195 -1.66016,-0.008 -2.48438,0.004 l -1.24609,0.0312 -1.23438,0.0625 c -0.41796,0.0195 -0.82812,0.0625 -1.23046,0.0898 -0.41407,0.0234 -0.82422,0.0586 -1.23829,0.10547 l -1.22656,0.11328 -1.23047,0.15234 c -0.40234,0.043 -0.80859,0.10157 -1.21875,0.16407 L 194,165.26562 c -0.80469,0.13672 -1.61719,0.25782 -2.42188,0.41797 l -1.19531,0.23438 -1.19531,0.25781 c -0.80859,0.16016 -1.59766,0.35938 -2.39063,0.55469 -0.39453,0.0898 -0.78515,0.1914 -1.17968,0.30469 l -1.17969,0.3125 c -0.78125,0.21875 -1.55469,0.45312 -2.33594,0.68359 l -0.38281,0.12109 h -0.004 l -1.93359,0.61328 0.0586,0.20704 2.3711,-0.50391 c 0.77734,-0.14063 1.54297,-0.29297 2.3125,-0.42969 0.004,0 0.004,0 0.008,0 0.0234,-0.004 0.043,-0.004 0.0664,-0.0117 l 1.19531,-0.19531 c 0.39844,-0.0664 0.79297,-0.12891 1.1914,-0.18359 0.80079,-0.10938 1.59766,-0.22657 2.39844,-0.3086 l 1.19922,-0.13672 1.19922,-0.10937 c 0.80469,-0.082 1.60547,-0.11719 2.40234,-0.17578 l 1.19922,-0.0547 c 0.40625,-0.0195 0.79688,-0.0391 1.19922,-0.043 l 1.19922,-0.0234 1.19922,0.004 c 0.39844,-0.004 0.79687,0.008 1.19531,0.0156 0.39453,0.0195 0.79297,0.0195 1.19531,0.043 l 1.1875,0.0586 L 203.75,167 c 0.78516,0.0664 1.57422,0.13672 2.35547,0.23437 0.39453,0.043 0.78515,0.0937 1.17187,0.15235 0.39063,0.0469 0.78125,0.10156 1.16797,0.17187 0.39063,0.0547 0.77735,0.12891 1.16016,0.19922 0.38672,0.0625 0.76172,0.14453 1.14844,0.22266 0.76562,0.15625 1.52343,0.33594 2.26953,0.52734 0.75,0.19922 1.48047,0.41406 2.20312,0.64844 0.36328,0.11719 0.71875,0.24609 1.0625,0.375 0.10156,0.043 0.19922,0.0781 0.29688,0.12109 0.008,0 0.008,0 0.0117,0 0.0664,0.0234 0.13281,0.0547 0.19921,0.0781 l 0.23438,0.10547 0.11719,0.0469 c 0.0312,0.0156 0.0781,0.0352 0.0781,0.0391 l 2.05469,1.41016 0.74609,0.51172 0.0195,-0.39844 0.0586,-1.30469 0.0859,-2.13671 0.83203,-22.71094 c 1.73047,0.14453 3.50781,0.16015 5.29297,0.0234 1.99218,-0.15235 4.01171,-0.46094 6.01171,-1.03907 1.9961,-0.57812 3.97657,-1.39062 5.82032,-2.53125 1.83984,-1.13281 3.51172,-2.66015 4.80078,-4.45703 0.34375,-0.4375 0.60156,-0.93359 0.89453,-1.39844 0.14844,-0.23046 0.25,-0.48828 0.375,-0.73437 0.11719,-0.25391 0.23828,-0.5 0.34766,-0.75 l 0.28515,-0.76563 c 0.0898,-0.26171 0.19531,-0.5 0.26563,-0.78906 l 0.21875,-0.83594 0.10547,-0.41406 0.0547,-0.34375 0.11719,-0.6875 0.0352,-0.17187 0.004,-0.0312 c 0,0 0,0 0,-0.004 v -0.0156 c 0.004,-0.0352 0.0195,-0.13282 0.0195,-0.13282 l 0.008,-0.0977 0.0352,-0.40625 c 0.0234,-0.27344 0.0547,-0.53907 0.0625,-0.8086 v -0.8164 c 0.008,-0.26953 -0.0156,-0.53516 -0.043,-0.80469 -0.0234,-0.26953 -0.043,-0.53516 -0.0742,-0.80078 l -0.13282,-0.78516 c -0.0195,-0.13672 -0.043,-0.26562 -0.0703,-0.39453 l -0.0937,-0.38672 c -0.0664,-0.25781 -0.125,-0.51562 -0.19531,-0.76953 l -0.24219,-0.74609 -0.125,-0.3711 -0.14453,-0.36718 -0.29688,-0.71875 c -0.44531,-0.94141 -0.92968,-1.84766 -1.51171,-2.67969 -1.13282,-1.69141 -2.49219,-3.16406 -4,-4.41406 -3,-2.51563 -6.5586,-4.15625 -10.14454,-4.82422 -1.79687,-0.33203 -3.60937,-0.39063 -5.33203,-0.19531 -0.14843,0.0234 -0.28906,0.043 -0.43359,0.0586 0.0117,-0.0703 0.0312,-0.14844 0.043,-0.21484 0.0781,-0.48047 0.17187,-0.96485 0.23828,-1.45704 0.0625,-0.5 0.14844,-1.00781 0.18359,-1.52734 0.0859,-1.03125 0.14453,-2.10156 0.11719,-3.20703 -0.004,-0.27734 -0.008,-0.55469 -0.0234,-0.83594 -0.0234,-0.28125 -0.043,-0.55859 -0.0664,-0.84375 -0.0273,-0.57031 -0.1211,-1.14453 -0.19532,-1.72265 -0.0312,-0.289068 -0.10546,-0.582036 -0.16015,-0.875005 -0.0625,-0.289063 -0.10938,-0.582031 -0.1875,-0.878906 -0.16016,-0.585938 -0.30078,-1.175781 -0.51172,-1.769531 -0.37891,-1.183594 -0.93359,-2.355469 -1.58984,-3.492188 -0.17969,-0.28125 -0.35547,-0.558594 -0.53907,-0.839844 -0.17187,-0.289062 -0.39062,-0.542968 -0.59375,-0.820312 -0.39453,-0.542969 -0.88672,-1.03125 -1.35156,-1.535156 -0.25,-0.238282 -0.51172,-0.464844 -0.76953,-0.699219 -0.13281,-0.113281 -0.25781,-0.230469 -0.39063,-0.339844 l -0.41796,-0.3125 c -0.28125,-0.207031 -0.5586,-0.417969 -0.84766,-0.609375 l -0.89453,-0.542969 c -0.29297,-0.183593 -0.60547,-0.332031 -0.92578,-0.484375 -0.31641,-0.148437 -0.61328,-0.300781 -0.94532,-0.441406 l -1.03906,-0.378906 -0.51953,-0.1875 -0.42578,-0.113282 -0.84375,-0.21875 -0.10156,-0.02734 -0.0234,-0.0039 c -0.0937,-0.02344 -0.125,-0.03516 -0.13281,-0.03516 l -0.0117,-0.0078 c 0,0 0,0 -0.004,0.0039 l -0.0625,-0.01563 -0.24219,-0.04687 -0.48437,-0.09766 c -0.32813,-0.06641 -0.65234,-0.105469 -0.97266,-0.15625 -0.32422,-0.05469 -0.65234,-0.08984 -0.97265,-0.117188 -2.59766,-0.25 -5.1211,-0.07422 -7.46875,0.371094 -1.17969,0.207031 -2.3086,0.503906 -3.39453,0.839844 -1.08594,0.324218 -2.1211,0.714844 -3.10547,1.132812 -1.96875,0.828125 -3.73047,1.792969 -5.26563,2.789063 -0.86328,0.5625 -1.65234,1.128906 -2.3789,1.699219 -0.0977,-0.160157 -0.19922,-0.324219 -0.30079,-0.488282 -0.20703,-0.335937 -0.41796,-0.667968 -0.625,-1.003906 -0.22656,-0.332031 -0.45312,-0.664062 -0.67578,-1.003906 -0.24609,-0.332032 -0.48047,-0.664063 -0.73437,-0.996094 -0.26172,-0.328125 -0.51172,-0.660156 -0.78516,-0.984375 -1.09375,-1.304687 -2.33594,-2.585937 -3.79687,-3.707031 -0.72266,-0.566406 -1.50782,-1.082032 -2.31641,-1.570313 -0.40625,-0.246093 -0.83594,-0.457031 -1.25391,-0.683593 -0.44921,-0.21875 -0.94531,-0.441407 -1.39062,-0.628907 l -0.57422,-0.21875 -0.28906,-0.113281 -0.14844,-0.05469 -0.12891,-0.04297 -0.1289,-0.04687 c -0.46485,-0.144531 -0.92188,-0.304688 -1.39844,-0.417969 l -0.70703,-0.183594 -0.71484,-0.144531 c -0.47657,-0.109375 -0.96094,-0.167969 -1.44532,-0.246094 -1.9375,-0.25 -3.90234,-0.242187 -5.82812,-0.03125 -1.92188,0.230469 -3.80078,0.675781 -5.59766,1.285157 -1.78515,0.625 -3.5,1.421874 -5.09375,2.367187 -0.79297,0.480469 -1.57031,0.984375 -2.30078,1.535156 -0.73828,0.535157 -1.4375,1.125 -2.10547,1.734375 -1.33203,1.214844 -2.52344,2.550782 -3.54687,3.976563 -0.26172,0.347656 -0.48438,0.726562 -0.72657,1.085937 -0.23437,0.371094 -0.47265,0.789063 -0.6875,1.164063 l -0.26171,0.503906 -0.12891,0.25 -0.0664,0.117187 -0.0312,0.07422 -0.0625,0.140625 c -0.17187,0.382813 -0.33984,0.761719 -0.51172,1.136719 -0.0781,0.1875 -0.16015,0.378906 -0.23828,0.5625 -0.0664,0.191406 -0.13281,0.382813 -0.19922,0.570313 -0.1289,0.382812 -0.26171,0.765624 -0.39062,1.140624 -0.0664,0.183594 -0.11719,0.378907 -0.16797,0.570313 -0.0508,0.1875 -0.0937,0.375 -0.14844,0.570313 -0.0977,0.375 -0.19922,0.75 -0.28515,1.121093 -0.0703,0.378907 -0.13282,0.753907 -0.20313,1.124999 -0.0273,0.1875 -0.0586,0.3711 -0.0937,0.5586 l -0.0469,0.27343 -0.0273,0.27735 c -0.0352,0.36328 -0.0703,0.72656 -0.10547,1.08984 -0.0195,0.17969 -0.0391,0.35938 -0.0508,0.53516 -0.0234,0.17968 -0.0195,0.35937 -0.0273,0.53515 -0.0586,1.42188 -0.0117,2.78125 0.10937,4.07422 0.19922,1.90235 0.54297,3.66016 0.98829,5.23438 -0.30469,0.10547 -0.6211,0.22656 -0.94532,0.35156 -1.51562,0.59766 -3.17968,1.41406 -4.88672,2.53906 -1.69921,1.12891 -3.44921,2.58594 -4.96484,4.5 -0.76953,0.95313 -1.45703,2.02344 -2.03515,3.20313 -0.28907,0.59375 -0.53907,1.21093 -0.76954,1.84765 -0.0508,0.16407 -0.0977,0.32422 -0.14843,0.48828 l -0.0781,0.24219 -0.0352,0.1211 -0.008,0.0312 c 0,0.008 0,0.008 0,0.0117 -0.004,0 -0.008,0.0195 -0.0273,0.0977 l -0.0117,0.0547 -0.10156,0.41406 -0.0508,0.21094 c -0.0234,0.0781 -0.043,0.1289 -0.0547,0.23437 -0.0703,0.36328 -0.13672,0.75 -0.18359,1.10547 -0.0352,0.34766 -0.0859,0.69531 -0.10157,1.05078 -0.043,0.70703 -0.043,1.41406 0.0117,2.12891 0.10938,1.43359 0.41797,2.85937 0.89844,4.22265"
       fill-opacity="1"
       fill-rule="nonzero"
       id="path16" />
  </g>
  <path
     fill="#ffbd59"
     d="m 22.561068,21.21912 c 1.54472,0.51126 3.03611,1.20245 4.43867,2.07419 0.90681,-1.2937 1.81479,-2.58675 2.721,-3.8811 -1.05902,-0.65818 -2.1601,-1.23352 -3.2908,-1.72796 -0.0889,-0.0375 -0.17895,-0.0757 -0.26843,-0.1139 -0.0305,-0.0123 -0.0586,-0.0252 -0.0883,-0.0375 -0.18842,-0.0789 -0.37847,-0.15532 -0.5686,-0.2291 -0.40809,-0.1605 -0.81972,-0.31 -1.23493,-0.44849 -0.77236,-0.25823 -1.55595,-0.48021 -2.34666,-0.66465 -0.28188,-0.0673 -0.56445,-0.12814 -0.84758,-0.18509 -0.003,-6.5e-4 -0.006,-0.001 -0.009,-0.001 -0.17773,-0.0356 -0.35657,-0.0699 -0.53485,-0.10161 -0.55499,-0.10031 -1.11351,-0.18121 -1.67322,-0.24593 -1.02705,-0.11843 -2.05881,-0.17797 -3.09178,-0.17797 -1.03414,0 -2.0683,0.0582 -3.09712,0.17797 -0.40513,0.0466 -0.80846,0.10226 -1.21181,0.16697 -0.33349,0.0531 -0.66517,0.11391 -0.99685,0.18057 -0.003,6.4e-4 -0.006,6.4e-4 -0.009,0.001 -0.10842,0.022 -0.21744,0.0447 -0.32457,0.0679 -0.9690004,0.20645 -1.9273304,0.4679 -2.8696704,0.78178 -0.23637,0.0796 -0.47146,0.1618 -0.70541,0.24787 -0.18782,0.0679 -0.37612,0.13914 -0.56152,0.21163 -0.0275,0.0117 -0.0586,0.0233 -0.0876,0.0349 -0.0947,0.0369 -0.18781,0.0751 -0.28187,0.11455 -1.31607,0.53974 -2.59247,1.18886 -3.81674,1.948 0.90859,1.29435 1.81538,2.5874 2.7222,3.8824 1.57549,-0.97853 3.26176,-1.73055 5.00903,-2.25606 0.0403,-0.0117 0.0819,-0.0239 0.12307,-0.0362 0.0486,-0.0142 0.0965,-0.0278 0.14567,-0.0421 0.0327,-0.009 0.065,-0.0188 0.0977,-0.0272 0.0214,-0.007 0.0461,-0.0136 0.0705,-0.0201 0.0153,-0.004 0.0275,-0.008 0.0422,-0.011 0.27179,-0.0757 0.54609,-0.14561 0.82091,-0.20968 1.61636,-0.37666 3.27183,-0.56563 4.92847,-0.56563 0.30203,0 0.60473,0.006 0.90563,0.0201 0.32221,0.0117 0.64501,0.0324 0.96661,0.0608 1.22962,0.10549 2.45151,0.31647 3.64853,0.63294 0.0763,0.0194 0.15209,0.0401 0.22813,0.0608 0.0366,0.0104 0.0745,0.0207 0.11238,0.0311 0.0812,0.0226 0.16216,0.046 0.2434,0.0699 0.0876,0.0259 0.1759,0.0518 0.26294,0.0796 0.0556,0.0162 0.11146,0.0343 0.16643,0.0511 0.0883,0.0278 0.17529,0.0563 0.26355,0.0861"
     fill-opacity="1"
     fill-rule="nonzero"
     id="path17"
     style="stroke-width:0.158496" />
  <g
     fill="#ffffff"
     fill-opacity="1"
     id="g20"
     transform="matrix(0.15162737,0,0,0.16567688,-12.666802,-13.11223)">
    <g
       transform="translate(149.77766,196.35429)"
       id="g19">
      <g
         id="g18">
        <path
           d="M 3.953125,-0.765625 2.28125,-9.421875 -1.203125,-8.75 -1.65625,-11.09375 7.8125,-12.921875 8.265625,-10.578125 4.78125,-9.90625 6.453125,-1.25 Z m 0,0"
           id="path18" />
      </g>
    </g>
  </g>
  <g
     fill="#ffffff"
     fill-opacity="1"
     id="g23"
     transform="matrix(0.15162737,0,0,0.16567688,-12.666802,-13.11223)">
    <g
       transform="translate(162.65665,193.95328)"
       id="g22">
      <g
         id="g21">
        <path
           d="m 0.140625,-0.015625 3.1875,-11.625 2.484375,-0.28125 5.65625,10.65625 -2.703125,0.296875 -0.96875,-1.84375 -4.421875,0.5 -0.53125,2 z M 3.796875,-4.375 6.9375,-4.71875 4.921875,-8.625 Z m 0,0"
           id="path20" />
      </g>
    </g>
  </g>
  <g
     fill="#ffffff"
     fill-opacity="1"
     id="g26"
     transform="matrix(0.15162737,0,0,0.16567688,-12.666802,-13.11223)">
    <g
       transform="translate(176.73124,192.48817)"
       id="g25">
      <g
         id="g24">
        <path
           d="m 1.34375,-0.03125 -0.28125,-11.203125 2.15625,-0.0625 5.125,6.6875 -0.171875,-6.8125 2.515625,-0.0625 L 10.96875,-0.28125 8.8125,-0.21875 3.703125,-6.953125 3.875,-0.09375 Z m 0,0"
           id="path23" />
      </g>
    </g>
  </g>
  <g
     fill="#ffffff"
     fill-opacity="1"
     id="g29"
     transform="matrix(0.15162737,0,0,0.16567688,-12.666802,-13.11223)">
    <g
       transform="translate(191.49854,192.20402)"
       id="g28">
      <g
         id="g27">
        <path
           d="M 6.625,0.65625 C 5.457031,0.570312 4.441406,0.253906 3.578125,-0.296875 2.710938,-0.847656 2.054688,-1.570312 1.609375,-2.46875 1.160156,-3.375 0.972656,-4.394531 1.046875,-5.53125 1.117188,-6.675781 1.4375,-7.671875 2,-8.515625 c 0.5625,-0.84375 1.304688,-1.476563 2.234375,-1.90625 0.925781,-0.4375 1.972656,-0.613281 3.140625,-0.53125 1.175781,0.07422 2.195312,0.386719 3.0625,0.9375 0.863281,0.542969 1.519531,1.265625 1.96875,2.171875 0.445312,0.90625 0.632812,1.933594 0.5625,3.078125 -0.07422,1.136719 -0.390625,2.125 -0.953125,2.96875 -0.5625,0.835937 -1.308594,1.46875 -2.234375,1.90625 C 8.851562,0.546875 7.800781,0.726562 6.625,0.65625 Z M 3.640625,-5.359375 c -0.042969,0.667969 0.0625,1.261719 0.3125,1.78125 0.25,0.523437 0.613281,0.945313 1.09375,1.265625 0.488281,0.324219 1.066406,0.511719 1.734375,0.5625 0.664062,0.042969 1.265625,-0.066406 1.796875,-0.328125 0.53125,-0.257813 0.953125,-0.632813 1.265625,-1.125 0.3125,-0.488281 0.488281,-1.066406 0.53125,-1.734375 0.03906,-0.675781 -0.0625,-1.273438 -0.3125,-1.796875 C 9.820312,-7.265625 9.453125,-7.691406 8.953125,-8.015625 8.460938,-8.335938 7.882812,-8.519531 7.21875,-8.5625 6.550781,-8.613281 5.957031,-8.507812 5.4375,-8.25 c -0.523438,0.261719 -0.945312,0.640625 -1.265625,1.140625 -0.3125,0.492187 -0.492187,1.074219 -0.53125,1.75 z m 0,0"
           id="path26" />
      </g>
    </g>
  </g>
  <g
     fill="#ffffff"
     fill-opacity="1"
     id="g32"
     transform="matrix(0.15162737,0,0,0.16567688,-12.666802,-13.11223)">
    <g
       transform="translate(207.32041,193.46223)"
       id="g31">
      <g
         id="g30">
        <path
           d="M 2.0625,-9.390625 3.25,-11.8125 l 2.15625,0.28125 -1.53125,2.375 z m 0,0"
           id="path29" />
      </g>
    </g>
  </g>
  <g
     fill="#ffffff"
     fill-opacity="1"
     id="g35"
     transform="matrix(0.15162737,0,0,0.16567688,-12.666802,-13.11223)">
    <g
       transform="translate(214.47379,194.40853)"
       id="g34">
      <g
         id="g33">
        <path
           d="M 5.109375,1.21875 C 4.191406,1.039062 3.429688,0.734375 2.828125,0.296875 2.222656,-0.128906 1.789062,-0.65625 1.53125,-1.28125 1.269531,-1.914062 1.210938,-2.609375 1.359375,-3.359375 L 3.8125,-2.890625 C 3.71875,-2.367188 3.820312,-1.925781 4.125,-1.5625 4.425781,-1.207031 4.882812,-0.96875 5.5,-0.84375 6.019531,-0.75 6.445312,-0.769531 6.78125,-0.90625 7.125,-1.050781 7.332031,-1.304688 7.40625,-1.671875 7.476562,-2.054688 7.351562,-2.40625 7.03125,-2.71875 6.71875,-3.039062 6.191406,-3.359375 5.453125,-3.671875 c -1.230469,-0.519531 -2.105469,-1.113281 -2.625,-1.78125 -0.511719,-0.675781 -0.679687,-1.460937 -0.5,-2.359375 0.1875,-1 0.703125,-1.71875 1.546875,-2.15625 0.851562,-0.445312 1.910156,-0.550781 3.171875,-0.3125 0.875,0.179688 1.597656,0.476562 2.171875,0.890625 0.582031,0.417969 1,0.933594 1.25,1.546875 0.25,0.617188 0.300781,1.292969 0.15625,2.03125 L 8.21875,-6.28125 c 0.09375,-0.488281 0.00391,-0.90625 -0.265625,-1.25 -0.261719,-0.34375 -0.679687,-0.570312 -1.25,-0.6875 -0.53125,-0.101562 -0.96875,-0.082031 -1.3125,0.0625 -0.34375,0.148438 -0.554687,0.40625 -0.625,0.78125 -0.0625,0.335938 0.046875,0.648438 0.328125,0.9375 0.289062,0.292969 0.835938,0.621094 1.640625,0.984375 1.320313,0.59375 2.234375,1.21875 2.734375,1.875 0.5,0.65625 0.660156,1.421875 0.484375,2.296875 C 9.753906,-0.238281 9.222656,0.5 8.359375,0.9375 c -0.855469,0.4375 -1.9375,0.53125 -3.25,0.28125 z m 0,0"
           id="path32" />
      </g>
    </g>
  </g>
</svg>
