<svg xmlns="http://www.w3.org/2000/svg" xmlns:xlink="http://www.w3.org/1999/xlink" width="500" zoomAndPan="magnify" viewBox="0 0 375 374.999991" height="500" preserveAspectRatio="xMidYMid meet" version="1.0"><defs><g/><clipPath id="9b26929874"><path d="M 134 95 L 187 95 L 187 169 L 134 169 Z M 134 95 " clip-rule="nonzero"/></clipPath><clipPath id="566cd694c5"><path d="M 195.550781 213.640625 L 125.042969 104.71875 L 143.300781 92.902344 L 213.808594 201.824219 Z M 195.550781 213.640625 " clip-rule="nonzero"/></clipPath><clipPath id="423a5557be"><path d="M 142.957031 92.972656 L 213.460938 201.890625 L 195.203125 213.710938 L 124.699219 104.789062 Z M 142.957031 92.972656 " clip-rule="nonzero"/></clipPath><clipPath id="05145f45af"><path d="M 138 103 L 160 103 L 160 150 L 138 150 Z M 138 103 " clip-rule="nonzero"/></clipPath><clipPath id="5a08079584"><path d="M 195.550781 213.640625 L 125.042969 104.71875 L 143.300781 92.902344 L 213.808594 201.824219 Z M 195.550781 213.640625 " clip-rule="nonzero"/></clipPath><clipPath id="6a9b77889b"><path d="M 142.957031 92.972656 L 213.460938 201.890625 L 195.203125 213.710938 L 124.699219 104.789062 Z M 142.957031 92.972656 " clip-rule="nonzero"/></clipPath><clipPath id="cd1b0b9ca8"><path d="M 181 165 L 209 165 L 209 204 L 181 204 Z M 181 165 " clip-rule="nonzero"/></clipPath><clipPath id="ac4c56d44b"><path d="M 195.550781 213.640625 L 125.042969 104.71875 L 143.300781 92.902344 L 213.808594 201.824219 Z M 195.550781 213.640625 " clip-rule="nonzero"/></clipPath><clipPath id="d409838d9c"><path d="M 142.957031 92.972656 L 213.460938 201.890625 L 195.203125 213.710938 L 124.699219 104.789062 Z M 142.957031 92.972656 " clip-rule="nonzero"/></clipPath><clipPath id="c67173d9ab"><path d="M 162 163 L 195 163 L 195 205 L 162 205 Z M 162 163 " clip-rule="nonzero"/></clipPath><clipPath id="c9c3560a89"><path d="M 218.570312 97.75 L 246.855469 117.507812 L 179.421875 214.039062 L 151.140625 194.28125 Z M 218.570312 97.75 " clip-rule="nonzero"/></clipPath><clipPath id="f502a4c69a"><path d="M 246.632812 117.355469 L 218.351562 97.597656 L 150.917969 194.125 L 179.203125 213.882812 Z M 246.632812 117.355469 " clip-rule="nonzero"/></clipPath><clipPath id="6dc0c4b741"><path d="M 162 164 L 193 164 L 193 205 L 162 205 Z M 162 164 " clip-rule="nonzero"/></clipPath><clipPath id="7e4c4e448d"><path d="M 218.570312 97.75 L 246.855469 117.507812 L 179.421875 214.039062 L 151.140625 194.28125 Z M 218.570312 97.75 " clip-rule="nonzero"/></clipPath><clipPath id="737c9ee66e"><path d="M 246.632812 117.355469 L 218.351562 97.597656 L 150.917969 194.125 L 179.203125 213.882812 Z M 246.632812 117.355469 " clip-rule="nonzero"/></clipPath><clipPath id="bfe62dc026"><path d="M 188 99 L 245 99 L 245 167 L 188 167 Z M 188 99 " clip-rule="nonzero"/></clipPath><clipPath id="38d9f99944"><path d="M 218.570312 97.75 L 246.855469 117.507812 L 179.421875 214.039062 L 151.140625 194.28125 Z M 218.570312 97.75 " clip-rule="nonzero"/></clipPath><clipPath id="49ba33fe57"><path d="M 246.632812 117.355469 L 218.351562 97.597656 L 150.917969 194.125 L 179.203125 213.882812 Z M 246.632812 117.355469 " clip-rule="nonzero"/></clipPath><clipPath id="aefa9623a1"><path d="M 246.5625 117.304688 L 218.648438 97.804688 L 177.570312 156.605469 L 205.484375 176.105469 Z M 246.5625 117.304688 " clip-rule="nonzero"/></clipPath><clipPath id="96e19c7a53"><path d="M 193 99 L 243 99 L 243 165 L 193 165 Z M 193 99 " clip-rule="nonzero"/></clipPath><clipPath id="32c365890b"><path d="M 218.570312 97.75 L 246.855469 117.507812 L 179.421875 214.039062 L 151.140625 194.28125 Z M 218.570312 97.75 " clip-rule="nonzero"/></clipPath><clipPath id="73a42808a5"><path d="M 246.632812 117.355469 L 218.351562 97.597656 L 150.917969 194.125 L 179.203125 213.882812 Z M 246.632812 117.355469 " clip-rule="nonzero"/></clipPath><clipPath id="90f4d57c33"><path d="M 220.789062 149 L 296 149 L 296 192 L 220.789062 192 Z M 220.789062 149 " clip-rule="nonzero"/></clipPath><clipPath id="9282275a3b"><path d="M 220.789062 151 L 343 151 L 343 192 L 220.789062 192 Z M 220.789062 151 " clip-rule="nonzero"/></clipPath><clipPath id="56714f3ee5"><path d="M 74 149 L 149.386719 149 L 149.386719 192 L 74 192 Z M 74 149 " clip-rule="nonzero"/></clipPath><clipPath id="6cd9fb9c5e"><path d="M 27 151 L 149.386719 151 L 149.386719 192 L 27 192 Z M 27 151 " clip-rule="nonzero"/></clipPath></defs><path stroke-linecap="round" transform="matrix(0.75, 0, 0, 0.75, 219.004459, 248.204017)" fill="none" stroke-linejoin="miter" d="M 4.499263 4.498812 L 90.280519 4.498812 " stroke="#e4c590" stroke-width="9" stroke-opacity="1" stroke-miterlimit="4"/><g fill="#e4c590" fill-opacity="1"><g transform="translate(80.720997, 243.529832)"><g><path d="M 27.25 -31.8125 L 29.28125 -31.8125 L 27.5625 -24.8125 L 25.578125 -24.8125 C 25.742188 -26.132812 25.675781 -27.097656 25.375 -27.703125 C 25.070312 -28.316406 24.65625 -28.707031 24.125 -28.875 C 23.601562 -29.039062 23.070312 -29.125 22.53125 -29.125 L 19.03125 -29.125 L 19.03125 -4.5625 C 19.03125 -3.6875 19.332031 -3.070312 19.9375 -2.71875 C 20.550781 -2.363281 21.703125 -2.132812 23.390625 -2.03125 L 23.390625 0 C 17.742188 -0.132812 12.078125 -0.132812 6.390625 0 L 6.390625 -2.03125 C 8.085938 -2.132812 9.226562 -2.363281 9.8125 -2.71875 C 10.40625 -3.070312 10.703125 -3.6875 10.703125 -4.5625 L 10.703125 -29.125 L 7.765625 -29.125 C 6.679688 -29.125 5.785156 -28.851562 5.078125 -28.3125 C 4.367188 -27.769531 3.609375 -26.601562 2.796875 -24.8125 L 0.765625 -24.8125 L 2.328125 -31.8125 L 4.359375 -31.8125 C 5.273438 -31.644531 6.238281 -31.550781 7.25 -31.53125 C 8.269531 -31.519531 9.507812 -31.515625 10.96875 -31.515625 L 20.8125 -31.515625 C 22.195312 -31.515625 23.382812 -31.519531 24.375 -31.53125 C 25.375 -31.550781 26.332031 -31.644531 27.25 -31.8125 Z M 27.25 -31.8125 "/></g></g></g><g fill="#e4c590" fill-opacity="1"><g transform="translate(110.506595, 243.529832)"><g><path d="M 29.390625 -7.40625 C 30.066406 -5.550781 30.789062 -4.222656 31.5625 -3.421875 C 32.34375 -2.628906 33.53125 -2.164062 35.125 -2.03125 L 35.125 0 C 29.4375 -0.132812 23.785156 -0.132812 18.171875 0 L 18.171875 -2.03125 C 19.453125 -2.09375 20.488281 -2.300781 21.28125 -2.65625 C 22.082031 -3.019531 22.296875 -3.707031 21.921875 -4.71875 L 20 -10 L 10.65625 -10 L 8.984375 -4.875 C 8.640625 -3.820312 9 -3.097656 10.0625 -2.703125 C 11.132812 -2.316406 12.648438 -2.09375 14.609375 -2.03125 L 14.609375 0 C 9.835938 -0.164062 5.132812 -0.164062 0.5 0 L 0.5 -2.03125 C 2.394531 -2.164062 3.773438 -2.507812 4.640625 -3.0625 C 5.503906 -3.625 6.140625 -4.484375 6.546875 -5.640625 L 15.484375 -31.765625 L 20.296875 -31.765625 Z M 11.375 -12.234375 L 19.125 -12.234375 L 14.96875 -23.5 Z M 11.375 -12.234375 "/></g></g></g><g fill="#e4c590" fill-opacity="1"><g transform="translate(145.873832, 243.529832)"><g><path d="M 20 -31.515625 C 24.96875 -31.347656 29.648438 -31.347656 34.046875 -31.515625 L 34.046875 -29.484375 C 33.171875 -29.421875 32.316406 -29.269531 31.484375 -29.03125 C 30.660156 -28.789062 29.984375 -28.441406 29.453125 -27.984375 C 28.929688 -27.523438 28.671875 -26.890625 28.671875 -26.078125 L 28.671875 0 L 26.078125 0 L 8.734375 -24.3125 L 8.734375 -5.484375 C 8.734375 -4.234375 9.320312 -3.378906 10.5 -2.921875 C 11.6875 -2.460938 13.144531 -2.164062 14.875 -2.03125 L 14.875 0 C 9.789062 -0.164062 5.085938 -0.164062 0.765625 0 L 0.765625 -2.03125 C 1.640625 -2.132812 2.484375 -2.296875 3.296875 -2.515625 C 4.109375 -2.734375 4.773438 -3.078125 5.296875 -3.546875 C 5.828125 -4.023438 6.09375 -4.671875 6.09375 -5.484375 L 6.09375 -25.125 C 6.09375 -26.476562 5.648438 -27.515625 4.765625 -28.234375 C 3.890625 -28.960938 2.738281 -29.378906 1.3125 -29.484375 L 1.3125 -31.515625 C 5.34375 -31.347656 9.390625 -31.347656 13.453125 -31.515625 L 26.03125 -13.796875 L 26.03125 -26.078125 C 26.03125 -27.296875 25.445312 -28.132812 24.28125 -28.59375 C 23.113281 -29.050781 21.6875 -29.347656 20 -29.484375 Z M 20 -31.515625 "/></g></g></g><g fill="#e4c590" fill-opacity="1"><g transform="translate(180.429196, 243.529832)"><g><path d="M 17.359375 -32.328125 C 20.296875 -32.328125 22.941406 -31.65625 25.296875 -30.3125 C 27.648438 -28.976562 29.503906 -27.050781 30.859375 -24.53125 C 32.210938 -22.007812 32.890625 -18.992188 32.890625 -15.484375 C 32.890625 -12.296875 32.191406 -9.472656 30.796875 -7.015625 C 29.410156 -4.566406 27.539062 -2.648438 25.1875 -1.265625 C 22.84375 0.117188 20.21875 0.8125 17.3125 0.8125 C 14.363281 0.8125 11.722656 0.144531 9.390625 -1.1875 C 7.054688 -2.53125 5.203125 -4.460938 3.828125 -6.984375 C 2.460938 -9.503906 1.78125 -12.519531 1.78125 -16.03125 C 1.78125 -19.25 2.472656 -22.078125 3.859375 -24.515625 C 5.242188 -26.953125 7.109375 -28.863281 9.453125 -30.25 C 11.804688 -31.632812 14.441406 -32.328125 17.359375 -32.328125 Z M 18.265625 -1.671875 C 20.128906 -1.671875 21.566406 -2.757812 22.578125 -4.9375 C 23.597656 -7.125 24.109375 -10.210938 24.109375 -14.203125 C 24.109375 -17.085938 23.800781 -19.710938 23.1875 -22.078125 C 22.582031 -24.441406 21.710938 -26.328125 20.578125 -27.734375 C 19.441406 -29.140625 18.097656 -29.84375 16.546875 -29.84375 C 14.648438 -29.84375 13.175781 -28.742188 12.125 -26.546875 C 11.082031 -24.347656 10.5625 -21.25 10.5625 -17.25 C 10.5625 -14.40625 10.875 -11.800781 11.5 -9.4375 C 12.125 -7.070312 13.007812 -5.1875 14.15625 -3.78125 C 15.3125 -2.375 16.679688 -1.671875 18.265625 -1.671875 Z M 18.265625 -1.671875 "/></g></g></g><g fill="#e4c590" fill-opacity="1"><g transform="translate(214.832332, 243.529832)"><g/></g></g><g fill="#e4c590" fill-opacity="1"><g transform="translate(225.741835, 243.529832)"><g><path d="M 2.53125 -29.796875 L 3.40625 -28.46875 L 11.875 -31.46875 C 12.925781 -31.832031 13.609375 -32.445312 13.921875 -33.3125 C 14.242188 -34.175781 14.171875 -34.960938 13.703125 -35.671875 C 13.191406 -36.347656 12.546875 -36.6875 11.765625 -36.6875 C 10.992188 -36.6875 10.203125 -36.347656 9.390625 -35.671875 Z M 2.53125 -29.796875 "/></g></g></g><g fill="#e4c590" fill-opacity="1"><g transform="translate(255.933372, 243.529832)"><g><path d="M 17.046875 -6.1875 C 17.046875 -7.375 16.625 -8.488281 15.78125 -9.53125 C 14.9375 -10.582031 13.265625 -11.734375 10.765625 -12.984375 C 9.234375 -13.765625 7.78125 -14.617188 6.40625 -15.546875 C 5.039062 -16.484375 3.914062 -17.59375 3.03125 -18.875 C 2.15625 -20.164062 1.71875 -21.722656 1.71875 -23.546875 C 1.71875 -25.441406 2.175781 -27.039062 3.09375 -28.34375 C 4.007812 -29.644531 5.234375 -30.632812 6.765625 -31.3125 C 8.304688 -31.988281 9.976562 -32.328125 11.78125 -32.328125 C 12.957031 -32.328125 13.953125 -32.222656 14.765625 -32.015625 C 15.578125 -31.816406 16.269531 -31.609375 16.84375 -31.390625 C 17.425781 -31.171875 17.921875 -31.0625 18.328125 -31.0625 C 19.035156 -31.0625 19.4375 -31.347656 19.53125 -31.921875 L 21.921875 -31.921875 L 22.375 -24.3125 L 20.453125 -24.3125 C 19.703125 -25.9375 18.910156 -27.144531 18.078125 -27.9375 C 17.253906 -28.726562 16.445312 -29.25 15.65625 -29.5 C 14.863281 -29.757812 14.144531 -29.890625 13.5 -29.890625 C 12.113281 -29.890625 11.039062 -29.507812 10.28125 -28.75 C 9.519531 -27.988281 9.140625 -27.082031 9.140625 -26.03125 C 9.140625 -24.71875 9.632812 -23.609375 10.625 -22.703125 C 11.625 -21.804688 13.019531 -20.9375 14.8125 -20.09375 C 15.726562 -19.65625 16.757812 -19.140625 17.90625 -18.546875 C 19.0625 -17.953125 20.171875 -17.234375 21.234375 -16.390625 C 22.304688 -15.546875 23.1875 -14.503906 23.875 -13.265625 C 24.570312 -12.035156 24.921875 -10.554688 24.921875 -8.828125 C 24.921875 -7.109375 24.570312 -5.640625 23.875 -4.421875 C 23.1875 -3.203125 22.28125 -2.207031 21.15625 -1.4375 C 20.039062 -0.675781 18.835938 -0.117188 17.546875 0.234375 C 16.265625 0.585938 15.035156 0.765625 13.859375 0.765625 C 12.503906 0.765625 11.359375 0.578125 10.421875 0.203125 C 9.492188 -0.171875 8.679688 -0.539062 7.984375 -0.90625 C 7.296875 -1.28125 6.628906 -1.46875 5.984375 -1.46875 C 5.410156 -1.46875 4.976562 -1.289062 4.6875 -0.9375 C 4.40625 -0.582031 4.226562 -0.269531 4.15625 0 L 1.828125 0 L 1.265625 -8.015625 L 3.609375 -8.015625 C 4.242188 -6.566406 5.066406 -5.382812 6.078125 -4.46875 C 7.097656 -3.550781 8.15625 -2.890625 9.25 -2.484375 C 10.351562 -2.078125 11.378906 -1.875 12.328125 -1.875 C 13.753906 -1.875 14.894531 -2.265625 15.75 -3.046875 C 16.613281 -3.828125 17.046875 -4.875 17.046875 -6.1875 Z M 17.046875 -6.1875 "/></g></g></g><g clip-path="url(#9b26929874)"><g clip-path="url(#566cd694c5)"><g clip-path="url(#423a5557be)"><path fill="#e4c590" d="M 139.773438 95.03125 C 139.773438 95.03125 127.980469 104.589844 141.402344 128.464844 C 147.757812 139.773438 167.640625 165.730469 167.640625 165.730469 C 167.640625 165.730469 175.5 161.988281 180.546875 168.34375 L 186.980469 164.179688 C 156.277344 115.199219 139.773438 95.03125 139.773438 95.03125 Z M 139.773438 95.03125 " fill-opacity="1" fill-rule="nonzero"/></g></g></g><g clip-path="url(#05145f45af)"><g clip-path="url(#5a08079584)"><g clip-path="url(#6a9b77889b)"><path fill="#a18f63" d="M 138.882812 103.417969 C 138.628906 107.726562 139.46875 111.9375 140.800781 115.941406 C 142.171875 119.945312 144.011719 123.785156 146.136719 127.457031 C 147.183594 129.300781 148.324219 131.105469 149.472656 132.910156 L 152.945312 138.316406 C 155.28125 141.914062 157.625 145.511719 159.867188 149.195312 C 157.058594 145.925781 154.410156 142.53125 151.867188 139.058594 C 149.320312 135.585938 146.878906 132.042969 144.679688 128.296875 C 142.535156 124.519531 140.703125 120.535156 139.550781 116.324219 C 138.410156 112.132812 137.929688 107.644531 138.882812 103.417969 Z M 138.882812 103.417969 " fill-opacity="1" fill-rule="nonzero"/></g></g></g><g clip-path="url(#cd1b0b9ca8)"><g clip-path="url(#ac4c56d44b)"><g clip-path="url(#d409838d9c)"><path fill="#e4c590" d="M 208.621094 199.503906 C 208.929688 194.964844 195.574219 175.886719 187.980469 165.535156 L 181.554688 169.695312 C 187.398438 186.648438 194.476562 187.621094 195.972656 193.277344 C 197.210938 197.949219 195.738281 200.824219 195.738281 200.824219 C 199.351562 204.9375 208.214844 205.453125 208.621094 199.503906 Z M 187.828125 174.632812 C 187.417969 173.996094 187.597656 173.144531 188.234375 172.734375 C 188.875 172.320312 189.722656 172.503906 190.136719 173.140625 C 190.546875 173.777344 190.367188 174.625 189.730469 175.039062 C 189.089844 175.453125 188.238281 175.269531 187.828125 174.632812 Z M 194.402344 184.789062 C 193.988281 184.148438 194.171875 183.300781 194.808594 182.886719 C 195.445312 182.476562 196.296875 182.65625 196.710938 183.292969 C 197.121094 183.929688 196.941406 184.78125 196.300781 185.195312 C 195.664062 185.605469 194.816406 185.425781 194.402344 184.789062 Z M 200.976562 194.941406 C 200.5625 194.304688 200.746094 193.453125 201.382812 193.042969 C 202.019531 192.628906 202.871094 192.8125 203.28125 193.449219 C 203.695312 194.085938 203.511719 194.9375 202.875 195.347656 C 202.238281 195.761719 201.386719 195.578125 200.976562 194.941406 Z M 200.976562 194.941406 " fill-opacity="1" fill-rule="nonzero"/></g></g></g><g clip-path="url(#c67173d9ab)"><g clip-path="url(#c9c3560a89)"><g clip-path="url(#f502a4c69a)"><path fill="#a18f63" d="M 166.363281 201.296875 C 168.171875 201.671875 169.183594 198.785156 167.09375 198.222656 C 164.863281 197.625 164.351562 200.878906 166.363281 201.296875 Z M 187.285156 163.046875 C 187.804688 163.414062 188.320312 163.78125 188.832031 164.15625 C 190.769531 164.300781 191.769531 165.402344 192.382812 166.886719 C 192.960938 167.351562 193.535156 167.824219 194.101562 168.304688 C 188.765625 176.171875 183.390625 183.796875 178.054688 191.664062 C 175.65625 195.195312 173.25 198.742188 170.414062 201.933594 C 169.488281 202.976562 168.363281 204.050781 166.96875 204.09375 C 166.15625 204.117188 165.378906 203.773438 164.652344 203.40625 C 163.886719 203.015625 163.113281 202.550781 162.664062 201.820312 C 161.675781 200.199219 162.683594 198.140625 163.6875 196.53125 C 170.914062 184.976562 178.753906 173.679688 187.285156 163.046875 " fill-opacity="1" fill-rule="nonzero"/></g></g></g><g clip-path="url(#6dc0c4b741)"><g clip-path="url(#7e4c4e448d)"><g clip-path="url(#737c9ee66e)"><path fill="#e4c590" d="M 183.738281 168.671875 C 183.808594 168.640625 183.886719 168.613281 183.945312 168.566406 C 183.964844 168.550781 183.925781 168.472656 183.914062 168.421875 C 183.839844 168.453125 183.769531 168.484375 183.699219 168.515625 C 183.714844 168.574219 183.726562 168.621094 183.738281 168.671875 Z M 186.261719 167.464844 C 186.332031 167.429688 186.410156 167.40625 186.464844 167.359375 C 186.484375 167.339844 186.445312 167.261719 186.433594 167.214844 C 186.363281 167.246094 186.292969 167.277344 186.222656 167.304688 C 186.234375 167.363281 186.25 167.414062 186.261719 167.464844 Z M 189.542969 167.460938 C 189.601562 167.484375 189.660156 167.496094 189.722656 167.503906 C 189.695312 167.613281 189.722656 167.714844 189.875 167.769531 C 190.125 167.863281 190.417969 167.433594 190.324219 167.152344 C 190.308594 167.109375 190.222656 167.042969 190.203125 167.054688 C 190.078125 167.117188 189.964844 167.199219 189.847656 167.269531 C 189.8125 167.3125 189.785156 167.355469 189.761719 167.398438 C 189.757812 167.382812 189.753906 167.371094 189.75 167.355469 C 189.671875 167.34375 189.589844 167.332031 189.507812 167.316406 C 189.519531 167.367188 189.519531 167.449219 189.542969 167.460938 Z M 191.421875 166.867188 C 191.449219 166.855469 191.484375 166.816406 191.484375 166.785156 C 191.496094 166.605469 191.21875 166.40625 191.027344 166.457031 C 190.996094 166.464844 190.980469 166.507812 190.957031 166.535156 C 190.953125 166.71875 191.226562 166.917969 191.421875 166.867188 Z M 184.234375 166.917969 C 185.394531 166.683594 186.542969 166.402344 187.648438 165.980469 C 188.082031 165.816406 188.925781 165.34375 189.832031 164.90625 C 190.746094 165.59375 191.648438 166.292969 192.535156 167.011719 C 192.03125 167.492188 191.328125 167.6875 190.476562 167.882812 C 188.449219 168.359375 186.421875 168.835938 184.390625 169.3125 C 183.582031 169.5 182.777344 169.691406 181.96875 169.878906 C 182.71875 168.886719 183.472656 167.898438 184.234375 166.917969 Z M 187.261719 174.007812 C 187.351562 173.992188 187.421875 173.980469 187.496094 173.96875 C 187.441406 173.863281 187.394531 173.75 187.316406 173.664062 C 187.292969 173.632812 187.179688 173.679688 187.105469 173.695312 C 187.15625 173.800781 187.210938 173.90625 187.261719 174.007812 Z M 188.84375 173.851562 C 188.816406 173.902344 188.867188 173.996094 188.878906 174.070312 C 189.179688 174.019531 189.480469 173.980469 189.773438 173.902344 C 189.808594 173.894531 189.835938 173.617188 189.777344 173.570312 C 189.746094 173.542969 189.714844 173.511719 189.679688 173.480469 C 189.824219 173.464844 189.867188 173.371094 189.765625 173.296875 C 189.378906 173.003906 188.964844 172.738281 188.554688 172.484375 C 188.515625 172.460938 188.402344 172.570312 188.355469 172.59375 C 188.695312 172.832031 189.035156 173.070312 189.359375 173.296875 C 189.308594 173.296875 189.253906 173.3125 189.195312 173.351562 C 189.035156 173.460938 188.945312 173.671875 188.84375 173.851562 Z M 178.804688 174.136719 C 181.753906 173.496094 184.726562 172.960938 187.714844 172.527344 C 187.78125 172.625 187.925781 172.722656 188.09375 172.753906 C 188.140625 172.765625 188.203125 172.753906 188.238281 172.730469 C 188.367188 172.652344 188.347656 172.582031 188.191406 172.523438 C 188.152344 172.507812 188.117188 172.488281 188.078125 172.472656 C 189.238281 172.304688 190.398438 172.15625 191.5625 172.019531 C 190.839844 173.070312 190.121094 174.125 189.398438 175.171875 C 187.71875 175.492188 185.964844 175.628906 184.410156 175.910156 C 183.808594 176.019531 179.71875 176.796875 176.4375 177.40625 C 177.21875 176.3125 178.007812 175.222656 178.804688 174.136719 Z M 177.246094 182.570312 C 177.296875 182.65625 177.355469 182.734375 177.410156 182.816406 C 177.542969 182.921875 177.703125 182.988281 177.761719 182.816406 C 177.8125 182.652344 177.5 182.441406 177.308594 182.492188 C 177.28125 182.5 177.238281 182.554688 177.246094 182.570312 Z M 176.617188 181.480469 C 176.625 181.519531 176.628906 181.558594 176.636719 181.59375 C 176.71875 181.550781 176.8125 181.511719 176.886719 181.460938 C 178.949219 181.324219 181.007812 181.144531 183.007812 180.65625 C 184.035156 180.40625 185.152344 179.988281 186.277344 179.699219 C 186.148438 179.878906 186.023438 180.0625 185.894531 180.246094 C 185.859375 180.175781 185.824219 180.101562 185.769531 180.046875 C 185.742188 180.015625 185.632812 180.0625 185.558594 180.074219 C 185.613281 180.179688 185.65625 180.296875 185.734375 180.378906 C 185.746094 180.390625 185.773438 180.390625 185.800781 180.386719 C 185.660156 180.589844 185.519531 180.792969 185.378906 180.996094 C 185.246094 180.542969 184.828125 180.402344 184.441406 180.292969 C 184.328125 180.257812 184.113281 180.535156 183.980469 180.699219 C 183.953125 180.730469 184.089844 180.894531 184.148438 180.996094 C 184.550781 180.667969 184.890625 181.214844 185.277344 181.144531 C 184.9375 181.636719 184.597656 182.128906 184.257812 182.617188 C 183 182.796875 181.742188 182.972656 180.484375 183.152344 C 179.828125 183.246094 174.996094 183.875 171.613281 184.351562 C 172.214844 183.464844 172.820312 182.578125 173.429688 181.695312 C 174.488281 181.609375 175.554688 181.546875 176.617188 181.480469 Z M 171.222656 191.015625 C 171.324219 190.960938 171.441406 190.917969 171.523438 190.84375 C 171.554688 190.816406 171.503906 190.703125 171.492188 190.628906 C 171.386719 190.6875 171.269531 190.726562 171.1875 190.804688 C 171.15625 190.832031 171.207031 190.941406 171.222656 191.015625 Z M 173.765625 189.550781 C 173.835938 189.515625 173.914062 189.492188 173.972656 189.445312 C 173.992188 189.429688 173.953125 189.351562 173.941406 189.300781 C 173.867188 189.332031 173.796875 189.363281 173.726562 189.390625 C 173.742188 189.449219 173.753906 189.5 173.765625 189.550781 Z M 180.074219 187.28125 C 180.085938 187.347656 180.09375 187.40625 180.105469 187.464844 C 180.210938 187.40625 180.324219 187.367188 180.410156 187.289062 C 180.421875 187.277344 180.417969 187.246094 180.410156 187.210938 C 180.679688 187.15625 180.945312 187.101562 181.214844 187.042969 C 180.523438 188.046875 179.832031 189.058594 179.140625 190.070312 C 178.078125 190.21875 177.015625 190.375 175.953125 190.515625 C 175.339844 190.59375 171.300781 190.992188 168.207031 191.375 C 168.195312 191.316406 168.1875 191.253906 168.1875 191.191406 C 167.886719 191.242188 167.589844 191.292969 167.292969 191.34375 C 167.308594 191.398438 167.328125 191.445312 167.34375 191.484375 C 167.175781 191.507812 167.011719 191.53125 166.855469 191.550781 C 167.410156 190.6875 167.972656 189.828125 168.535156 188.96875 C 172.410156 188.636719 176.265625 188.074219 180.074219 187.28125 Z M 171.679688 195.355469 C 171.785156 195.304688 171.894531 195.253906 171.996094 195.207031 C 171.976562 195.117188 171.964844 195.042969 171.953125 194.96875 C 171.847656 195.027344 171.730469 195.066406 171.648438 195.144531 C 171.617188 195.171875 171.667969 195.285156 171.679688 195.355469 Z M 171.730469 196.667969 C 171.800781 196.632812 171.878906 196.609375 171.933594 196.5625 C 171.953125 196.542969 171.914062 196.464844 171.902344 196.417969 C 171.832031 196.449219 171.753906 196.476562 171.699219 196.523438 C 171.679688 196.539062 171.71875 196.617188 171.730469 196.667969 Z M 174.777344 195.507812 C 174.710938 195.050781 174.449219 194.867188 173.992188 194.960938 C 174.0625 195.421875 174.324219 195.605469 174.777344 195.507812 Z M 167.25 195.421875 C 167.46875 195.390625 167.6875 195.359375 167.90625 195.328125 C 167.9375 195.382812 167.96875 195.4375 168 195.492188 C 168.058594 195.484375 168.109375 195.480469 168.160156 195.472656 C 168.128906 195.417969 168.097656 195.359375 168.058594 195.308594 C 169.496094 195.101562 170.921875 194.839844 172.34375 194.546875 C 172.542969 194.84375 172.597656 195.253906 173.042969 195.355469 C 173.132812 195.417969 173.21875 195.511719 173.316406 195.539062 C 173.40625 195.5625 173.53125 195.539062 173.59375 195.488281 C 173.839844 195.277344 173.609375 194.429688 173.316406 194.457031 C 173.167969 194.46875 173.03125 194.457031 172.910156 194.425781 C 173.179688 194.367188 173.449219 194.308594 173.71875 194.25 C 173.722656 194.28125 173.746094 194.332031 173.753906 194.367188 C 173.824219 194.335938 173.90625 194.3125 173.960938 194.261719 C 173.972656 194.253906 173.964844 194.226562 173.953125 194.195312 C 174.898438 193.980469 175.84375 193.757812 176.785156 193.523438 C 176.003906 194.664062 175.214844 195.800781 174.402344 196.921875 C 174.335938 196.925781 174.269531 196.929688 174.203125 196.9375 C 170.40625 197.3125 166.613281 197.71875 162.816406 198.121094 C 163.070312 197.566406 163.378906 197.027344 163.6875 196.53125 C 163.859375 196.257812 164.03125 195.984375 164.207031 195.707031 C 165.222656 195.652344 166.238281 195.550781 167.25 195.421875 Z M 177.425781 184.3125 C 177.355469 184.339844 177.28125 184.371094 177.214844 184.402344 C 177.226562 184.460938 177.238281 184.511719 177.253906 184.5625 C 177.320312 184.527344 177.402344 184.503906 177.457031 184.453125 C 177.476562 184.4375 177.4375 184.359375 177.425781 184.3125 Z M 181.25 183.640625 C 181.175781 183.671875 181.105469 183.699219 181.035156 183.730469 C 181.050781 183.789062 181.0625 183.839844 181.074219 183.890625 C 181.144531 183.855469 181.226562 183.832031 181.28125 183.785156 C 181.300781 183.765625 181.261719 183.691406 181.25 183.640625 Z M 185.710938 166.152344 C 185.667969 166.078125 185.628906 166.003906 185.589844 165.9375 C 185.527344 165.941406 185.476562 165.949219 185.429688 165.953125 C 185.472656 166.027344 185.503906 166.105469 185.5625 166.164062 C 185.582031 166.183594 185.660156 166.15625 185.710938 166.152344 Z M 179.105469 184.121094 C 179.078125 184.128906 179.0625 184.171875 179.039062 184.199219 C 179.035156 184.378906 179.308594 184.578125 179.5 184.527344 C 179.53125 184.519531 179.566406 184.480469 179.566406 184.449219 C 179.578125 184.269531 179.300781 184.066406 179.105469 184.121094 Z M 174.484375 193.140625 C 174.453125 193.148438 174.410156 193.203125 174.417969 193.214844 C 174.46875 193.300781 174.53125 193.382812 174.585938 193.464844 C 174.71875 193.570312 174.878906 193.636719 174.933594 193.464844 C 174.988281 193.304688 174.675781 193.089844 174.484375 193.140625 Z M 181.089844 172.878906 C 181.058594 172.890625 181.042969 172.929688 181.019531 172.957031 C 181.015625 173.140625 181.289062 173.339844 181.484375 173.289062 C 181.511719 173.28125 181.546875 173.238281 181.546875 173.210938 C 181.558594 173.027344 181.28125 172.828125 181.089844 172.878906 Z M 182.59375 170.722656 C 182.613281 170.921875 182.921875 171.140625 183.054688 171.035156 C 183.195312 170.925781 183.082031 170.796875 182.933594 170.710938 C 182.839844 170.683594 182.742188 170.65625 182.644531 170.636719 C 182.628906 170.636719 182.589844 170.691406 182.59375 170.722656 Z M 163.929688 199.628906 C 163.957031 199.617188 163.984375 199.574219 163.980469 199.542969 C 163.964844 199.34375 163.683594 199.152344 163.511719 199.222656 C 163.496094 199.25 163.460938 199.28125 163.464844 199.3125 C 163.480469 199.511719 163.761719 199.703125 163.929688 199.628906 Z M 174.136719 187.890625 C 174.347656 187.886719 174.550781 187.855469 174.804688 187.824219 C 174.691406 187.691406 174.613281 187.550781 174.492188 187.46875 C 174.308594 187.34375 174.089844 187.445312 174.039062 187.675781 C 174.023438 187.734375 174.113281 187.890625 174.136719 187.890625 Z M 164.425781 198.648438 C 164.417969 198.535156 164.367188 198.421875 164.332031 198.308594 C 164.257812 198.320312 164.128906 198.324219 164.128906 198.34375 C 164.113281 198.460938 164.113281 198.585938 164.144531 198.695312 C 164.160156 198.75 164.261719 198.820312 164.3125 198.808594 C 164.359375 198.800781 164.429688 198.703125 164.425781 198.648438 Z M 190.449219 171.398438 C 190.5 171.386719 190.566406 171.285156 190.558594 171.238281 C 190.550781 171.1875 190.453125 171.117188 190.398438 171.121094 C 190.28125 171.128906 190.167969 171.175781 190.054688 171.207031 C 190.066406 171.285156 190.074219 171.410156 190.09375 171.414062 C 190.210938 171.425781 190.335938 171.429688 190.449219 171.398438 Z M 190.746094 171.355469 C 190.859375 171.320312 191.066406 171.296875 191.070312 171.253906 C 191.09375 170.921875 190.871094 171.003906 190.691406 171.070312 C 190.636719 171.085938 190.570312 171.183594 190.582031 171.234375 C 190.589844 171.28125 190.6875 171.316406 190.746094 171.355469 Z M 187.277344 170.945312 C 187.222656 170.839844 187.179688 170.726562 187.101562 170.640625 C 187.074219 170.613281 186.960938 170.660156 186.886719 170.671875 C 186.945312 170.773438 186.988281 170.890625 187.066406 170.976562 C 187.09375 171.003906 187.207031 170.957031 187.277344 170.945312 Z M 178.320312 185.074219 C 178.203125 185.082031 178.089844 185.128906 177.976562 185.160156 C 177.992188 185.238281 178 185.363281 178.019531 185.367188 C 178.136719 185.378906 178.257812 185.382812 178.371094 185.351562 C 178.421875 185.339844 178.492188 185.238281 178.484375 185.191406 C 178.472656 185.140625 178.375 185.070312 178.320312 185.074219 Z M 176.570312 184.882812 C 176.675781 184.929688 176.796875 184.929688 176.914062 184.949219 C 176.902344 184.875 176.890625 184.800781 176.871094 184.710938 C 176.757812 184.699219 176.640625 184.6875 176.523438 184.675781 C 176.539062 184.746094 176.53125 184.867188 176.570312 184.882812 Z M 172.359375 187.980469 C 172.386719 187.953125 172.339844 187.839844 172.324219 187.769531 C 172.222656 187.824219 172.105469 187.863281 172.019531 187.941406 C 171.992188 187.96875 172.042969 188.082031 172.054688 188.15625 C 172.160156 188.097656 172.273438 188.058594 172.359375 187.980469 Z M 182.132812 172.597656 C 182.148438 172.6875 182.160156 172.761719 182.175781 172.832031 C 182.28125 172.777344 182.394531 172.738281 182.480469 172.660156 C 182.507812 172.632812 182.457031 172.519531 182.445312 172.449219 C 182.339844 172.5 182.234375 172.550781 182.132812 172.597656 Z M 187 172.195312 C 186.949219 172.203125 186.917969 172.296875 186.878906 172.355469 C 186.910156 172.46875 186.941406 172.675781 186.984375 172.679688 C 187.316406 172.707031 187.230469 172.488281 187.164062 172.304688 C 187.144531 172.253906 187.046875 172.183594 187 172.195312 Z M 185.332031 170.9375 C 185.417969 170.921875 185.492188 170.910156 185.566406 170.894531 C 185.507812 170.792969 185.464844 170.675781 185.386719 170.59375 C 185.359375 170.5625 185.25 170.609375 185.175781 170.625 C 185.226562 170.730469 185.28125 170.835938 185.332031 170.9375 Z M 182.460938 179.921875 C 182.390625 179.9375 182.316406 179.949219 182.226562 179.964844 C 182.214844 180.074219 182.203125 180.191406 182.191406 180.308594 C 182.265625 180.296875 182.390625 180.304688 182.402344 180.265625 C 182.445312 180.164062 182.445312 180.039062 182.460938 179.921875 Z M 181.046875 177.785156 C 180.941406 177.835938 180.835938 177.886719 180.730469 177.9375 C 180.75 178.023438 180.761719 178.097656 180.777344 178.171875 C 180.878906 178.117188 180.996094 178.074219 181.078125 177.996094 C 181.109375 177.96875 181.058594 177.859375 181.046875 177.785156 Z M 178.5 185.195312 C 178.5 185.195312 178.613281 185.304688 178.671875 185.308594 C 179.023438 185.335938 179.183594 185.113281 179.273438 184.824219 C 179.292969 184.761719 179.253906 184.621094 179.238281 184.621094 C 179.117188 184.617188 178.949219 184.589844 178.878906 184.660156 C 178.726562 184.808594 178.617188 185.007812 178.5 185.195312 Z M 184.628906 178.75 C 184.617188 178.453125 184.226562 178.191406 183.976562 178.304688 C 183.949219 178.351562 183.894531 178.398438 183.898438 178.445312 C 183.90625 178.738281 184.300781 179.003906 184.546875 178.882812 C 184.585938 178.863281 184.628906 178.796875 184.628906 178.75 Z M 164.6875 199.601562 C 164.75 199.621094 164.894531 199.582031 164.894531 199.570312 C 164.894531 199.546875 164.894531 199.523438 164.898438 199.503906 C 164.90625 199.5 164.914062 199.5 164.925781 199.5 C 164.960938 199.492188 165.003906 199.425781 164.996094 199.394531 C 164.988281 199.363281 164.929688 199.324219 164.890625 199.316406 C 164.886719 199.273438 164.875 199.234375 164.851562 199.210938 C 164.695312 199.054688 164.496094 198.945312 164.308594 198.828125 C 164.304688 198.828125 164.199219 198.9375 164.195312 198.996094 C 164.171875 199.34375 164.398438 199.507812 164.6875 199.601562 Z M 174.753906 186.003906 C 174.917969 186.140625 175.101562 186.386719 175.339844 186.222656 C 175.496094 186.113281 175.589844 185.902344 175.691406 185.722656 C 175.71875 185.671875 175.667969 185.574219 175.65625 185.5 C 175.355469 185.550781 175.054688 185.59375 174.761719 185.667969 C 174.726562 185.679688 174.699219 185.957031 174.753906 186.003906 Z M 186.789062 172.070312 C 186.992188 172.171875 187.070312 172.230469 187.125 171.988281 C 187.140625 171.921875 187.128906 171.804688 187.085938 171.765625 C 186.804688 171.519531 186.511719 171.285156 185.882812 170.769531 C 186.019531 171.507812 186.078125 171.816406 186.136719 172.140625 C 186.359375 172.109375 186.625 171.984375 186.789062 172.070312 Z M 167.867188 201.695312 C 167.890625 201.71875 167.964844 201.691406 168.015625 201.683594 C 167.976562 201.609375 167.933594 201.539062 167.898438 201.46875 C 167.835938 201.476562 167.785156 201.480469 167.734375 201.488281 C 167.777344 201.558594 167.8125 201.636719 167.867188 201.695312 Z M 166.363281 201.296875 C 166.945312 201.417969 167.445312 201.199219 167.785156 200.832031 C 168.027344 200.828125 168.269531 200.828125 168.507812 200.824219 C 169.171875 200.8125 170.539062 200.554688 171.605469 200.539062 C 171.214844 201.011719 170.820312 201.476562 170.414062 201.933594 C 169.488281 202.976562 168.363281 204.050781 166.96875 204.09375 C 166.15625 204.117188 165.378906 203.773438 164.652344 203.40625 C 163.886719 203.015625 163.113281 202.550781 162.664062 201.820312 C 162.46875 201.5 162.355469 201.164062 162.300781 200.816406 C 163.375 200.835938 164.453125 200.84375 165.53125 200.84375 C 165.730469 201.058594 166.007812 201.222656 166.363281 201.296875 " fill-opacity="1" fill-rule="nonzero"/></g></g></g><g clip-path="url(#bfe62dc026)"><g clip-path="url(#38d9f99944)"><g clip-path="url(#49ba33fe57)"><g clip-path="url(#aefa9623a1)"><path fill="#e4c590" d="M 214.753906 112.449219 C 211.484375 117.28125 208.210938 122.113281 204.941406 126.945312 C 204.605469 127.445312 204.257812 127.960938 204.125 128.546875 C 203.996094 129.136719 204.121094 129.824219 204.59375 130.199219 C 205.117188 130.613281 205.90625 130.519531 206.46875 130.160156 C 207.03125 129.796875 207.417969 129.226562 207.789062 128.667969 C 212.15625 122.078125 216.976562 115.671875 220.589844 108.625 C 220.765625 108.28125 220.945312 107.917969 220.953125 107.527344 C 220.960938 107.140625 220.742188 106.71875 220.367188 106.621094 C 220 106.527344 219.632812 106.757812 219.335938 106.992188 C 217.457031 108.464844 216.089844 110.472656 214.753906 112.449219 Z M 210.058594 132.648438 C 209.886719 133.039062 209.75 133.523438 210.003906 133.867188 C 210.144531 134.054688 210.375 134.152344 210.605469 134.199219 C 211.914062 134.449219 213 133.246094 213.785156 132.171875 C 216.828125 127.984375 219.8125 123.75 222.734375 119.472656 C 224.039062 117.5625 225.46875 115.679688 226.699219 113.726562 C 227.347656 112.707031 227.222656 109.652344 225.464844 111.121094 C 224.441406 111.980469 223.65625 113.085938 222.882812 114.175781 C 219.171875 119.414062 215.464844 124.652344 211.757812 129.890625 C 211.132812 130.773438 210.503906 131.664062 210.058594 132.648438 Z M 214.867188 135.691406 C 214.667969 136.414062 214.765625 137.265625 215.304688 137.78125 C 215.9375 138.390625 216.988281 138.355469 217.757812 137.9375 C 218.53125 137.523438 219.085938 136.804688 219.613281 136.105469 C 222.148438 132.738281 224.890625 129.210938 227.082031 125.628906 C 229.25 122.089844 230.613281 120.671875 232.84375 116.996094 C 233.367188 116.132812 233.585938 114.8125 232.773438 114.214844 C 231.996094 113.644531 230.910156 114.246094 230.203125 114.898438 C 228.714844 116.261719 227.507812 117.902344 226.316406 119.527344 C 222.847656 124.257812 219.390625 128.996094 215.949219 133.742188 C 215.511719 134.347656 215.066406 134.972656 214.867188 135.691406 Z M 221.339844 140.125 C 221.023438 141.117188 222.121094 142.003906 223.003906 141.453125 C 223.011719 141.449219 223.015625 141.449219 223.023438 141.445312 C 223.621094 141.0625 224.046875 140.464844 224.453125 139.886719 C 228.488281 134.105469 232.554688 128.347656 236.550781 122.542969 C 237.367188 121.355469 238.222656 120.03125 237.996094 118.585938 C 237.964844 118.378906 237.863281 118.179688 237.6875 118.070312 C 237.332031 117.847656 236.996094 118.109375 236.738281 118.355469 C 234.378906 120.605469 232.488281 123.289062 230.617188 125.953125 C 228.441406 129.046875 226.265625 132.144531 224.089844 135.238281 C 223.011719 136.769531 221.910156 138.363281 221.339844 140.125 Z M 217.867188 99.597656 C 218.898438 99.195312 220.019531 99.820312 220.953125 100.421875 C 227.351562 104.558594 233.75 108.699219 240.148438 112.835938 C 242.035156 114.058594 244.816406 116.304688 244.28125 119.089844 C 243.890625 121.144531 242.132812 123.777344 240.859375 125.375 C 235.539062 132.050781 230.238281 138.738281 224.929688 145.417969 C 224.03125 146.542969 222.953125 147.769531 221.515625 147.824219 C 220.578125 147.855469 219.710938 147.371094 218.90625 146.898438 C 216.113281 145.25 213.375 143.515625 210.683594 141.710938 C 210.085938 142.644531 209.386719 143.484375 209.054688 143.941406 C 207.019531 146.742188 204.984375 149.542969 202.945312 152.347656 C 199.425781 157.191406 195.902344 162.039062 192.382812 166.886719 C 191.21875 165.949219 190.035156 165.039062 188.828125 164.15625 C 194.917969 155.863281 201.007812 147.566406 207.09375 139.269531 C 207.097656 139.261719 207.105469 139.253906 207.109375 139.246094 C 204.527344 137.414062 201.996094 135.511719 199.523438 133.535156 C 198.714844 132.886719 197.851562 132.136719 197.691406 131.109375 C 197.535156 130.113281 198.089844 129.160156 198.625 128.308594 C 204.371094 119.105469 210.292969 110.019531 216.386719 101.046875 C 216.78125 100.464844 217.210938 99.855469 217.867188 99.597656 " fill-opacity="1" fill-rule="nonzero"/></g></g></g></g><g clip-path="url(#96e19c7a53)"><g clip-path="url(#32c365890b)"><g clip-path="url(#73a42808a5)"><path fill="#a18f63" d="M 218.300781 129.707031 C 218.335938 129.703125 218.40625 129.753906 218.421875 129.789062 C 218.472656 129.914062 218.539062 130.066406 218.308594 130.035156 C 218.277344 130.03125 218.25 129.890625 218.222656 129.8125 C 218.25 129.773438 218.265625 129.710938 218.300781 129.707031 Z M 209.140625 114.816406 C 209.179688 114.886719 209.21875 114.960938 209.257812 115.03125 C 209.207031 115.039062 209.132812 115.066406 209.113281 115.046875 C 209.054688 114.984375 209.019531 114.90625 208.976562 114.835938 C 209.027344 114.828125 209.078125 114.824219 209.140625 114.816406 Z M 218.21875 119.125 C 218.273438 119.078125 218.351562 119.054688 218.421875 119.019531 C 218.433594 119.070312 218.472656 119.148438 218.453125 119.164062 C 218.398438 119.210938 218.320312 119.234375 218.25 119.269531 C 218.238281 119.21875 218.199219 119.144531 218.21875 119.125 Z M 232.300781 129.949219 C 232.246094 130 232.167969 130.023438 232.097656 130.058594 C 232.085938 130.007812 232.046875 129.929688 232.066406 129.914062 C 232.121094 129.867188 232.203125 129.839844 232.269531 129.808594 C 232.285156 129.859375 232.320312 129.933594 232.300781 129.949219 Z M 216.453125 118.625 C 216.523438 118.597656 216.59375 118.566406 216.664062 118.535156 C 216.679688 118.585938 216.714844 118.664062 216.695312 118.679688 C 216.640625 118.726562 216.5625 118.75 216.492188 118.785156 C 216.480469 118.734375 216.46875 118.6875 216.453125 118.625 Z M 209.945312 118.851562 C 209.894531 118.859375 209.816406 118.886719 209.796875 118.867188 C 209.742188 118.804688 209.707031 118.726562 209.664062 118.65625 C 209.714844 118.648438 209.792969 118.621094 209.808594 118.640625 C 209.867188 118.703125 209.902344 118.78125 209.945312 118.851562 Z M 213.171875 122.035156 C 213.214844 122.066406 213.277344 122.085938 213.292969 122.125 C 213.347656 122.246094 213.414062 122.398438 213.179688 122.367188 C 213.152344 122.363281 213.125 122.222656 213.09375 122.148438 C 213.121094 122.109375 213.148438 122.074219 213.171875 122.035156 Z M 213.050781 121.945312 C 213.027344 121.871094 213.023438 121.789062 213.027344 121.710938 C 213.027344 121.699219 213.117188 121.699219 213.167969 121.691406 C 213.195312 121.769531 213.234375 121.847656 213.246094 121.925781 C 213.25 121.960938 213.203125 122.023438 213.171875 122.027344 C 213.136719 122.03125 213.0625 121.980469 213.050781 121.945312 Z M 233.34375 132.664062 C 233.335938 132.6875 233.25 132.675781 233.199219 132.683594 C 233.203125 132.605469 233.207031 132.527344 233.210938 132.453125 C 233.269531 132.445312 233.320312 132.4375 233.371094 132.433594 C 233.363281 132.511719 233.371094 132.59375 233.34375 132.664062 Z M 217.378906 122.007812 C 217.386719 122.042969 217.339844 122.105469 217.304688 122.113281 C 217.230469 122.128906 217.140625 122.125 217.058594 122.113281 C 217.046875 122.109375 217.035156 122.023438 217.023438 121.972656 C 217.101562 121.953125 217.179688 121.925781 217.257812 121.925781 C 217.296875 121.925781 217.371094 121.976562 217.378906 122.007812 Z M 213.292969 132.753906 C 213.363281 132.722656 213.433594 132.695312 213.503906 132.664062 C 213.515625 132.714844 213.554688 132.789062 213.535156 132.808594 C 213.480469 132.855469 213.402344 132.878906 213.332031 132.914062 C 213.320312 132.863281 213.308594 132.8125 213.292969 132.753906 Z M 215.152344 138.519531 C 215.210938 138.472656 215.289062 138.445312 215.359375 138.414062 C 215.371094 138.460938 215.410156 138.539062 215.390625 138.554688 C 215.332031 138.605469 215.253906 138.628906 215.183594 138.664062 C 215.171875 138.613281 215.132812 138.535156 215.152344 138.519531 Z M 198.828125 128.164062 C 198.878906 128.160156 198.953125 128.128906 198.976562 128.152344 C 199.03125 128.210938 199.066406 128.289062 199.109375 128.363281 C 199.058594 128.367188 199.007812 128.375 198.945312 128.378906 C 198.910156 128.308594 198.867188 128.238281 198.828125 128.164062 Z M 241.414062 117.507812 C 241.40625 117.535156 241.316406 117.523438 241.269531 117.53125 C 241.273438 117.453125 241.277344 117.375 241.28125 117.300781 C 241.339844 117.292969 241.390625 117.285156 241.441406 117.28125 C 241.433594 117.355469 241.4375 117.441406 241.414062 117.507812 Z M 222.78125 105.96875 C 222.847656 105.9375 222.921875 105.90625 222.992188 105.878906 C 223.003906 105.925781 223.042969 106.003906 223.023438 106.019531 C 222.96875 106.070312 222.886719 106.09375 222.820312 106.125 C 222.804688 106.078125 222.792969 106.027344 222.78125 105.96875 Z M 214.183594 110.789062 C 214.125 110.730469 214.089844 110.652344 214.046875 110.582031 C 214.097656 110.574219 214.148438 110.570312 214.210938 110.5625 C 214.246094 110.632812 214.289062 110.703125 214.328125 110.777344 C 214.277344 110.78125 214.203125 110.8125 214.183594 110.789062 Z M 214.707031 111.652344 C 214.742188 111.722656 214.785156 111.792969 214.824219 111.867188 C 214.773438 111.871094 214.699219 111.902344 214.679688 111.878906 C 214.621094 111.820312 214.585938 111.742188 214.542969 111.667969 C 214.59375 111.664062 214.644531 111.65625 214.707031 111.652344 Z M 236.453125 123.820312 C 236.464844 123.871094 236.503906 123.945312 236.484375 123.964844 C 236.429688 124.011719 236.351562 124.035156 236.28125 124.070312 C 236.269531 124.019531 236.230469 123.941406 236.25 123.925781 C 236.304688 123.878906 236.382812 123.855469 236.453125 123.820312 Z M 235.867188 129.164062 C 235.949219 129.179688 236.035156 129.183594 236.109375 129.21875 C 236.136719 129.230469 236.136719 129.308594 236.148438 129.359375 C 236.066406 129.347656 235.984375 129.335938 235.90625 129.324219 C 235.890625 129.261719 235.878906 129.214844 235.867188 129.164062 Z M 232.140625 113.699219 C 232.128906 113.640625 232.117188 113.589844 232.105469 113.542969 C 232.1875 113.558594 232.273438 113.5625 232.347656 113.59375 C 232.375 113.609375 232.375 113.6875 232.386719 113.738281 C 232.304688 113.726562 232.222656 113.710938 232.140625 113.699219 Z M 233.726562 115.417969 C 233.644531 115.40625 233.5625 115.394531 233.484375 115.378906 C 233.46875 115.320312 233.457031 115.269531 233.445312 115.222656 C 233.527344 115.238281 233.613281 115.242188 233.691406 115.273438 C 233.714844 115.289062 233.714844 115.367188 233.726562 115.417969 Z M 197.980469 152.871094 C 198.050781 152.84375 198.121094 152.8125 198.191406 152.78125 C 198.207031 152.832031 198.242188 152.90625 198.222656 152.925781 C 198.167969 152.972656 198.089844 152.996094 198.019531 153.03125 C 198.007812 152.980469 197.996094 152.933594 197.980469 152.871094 Z M 198.96875 152.085938 C 199.023438 152.039062 199.101562 152.015625 199.171875 151.980469 C 199.183594 152.03125 199.222656 152.105469 199.203125 152.125 C 199.148438 152.171875 199.066406 152.195312 198.996094 152.230469 C 198.988281 152.179688 198.949219 152.101562 198.96875 152.085938 Z M 238.15625 126 C 238.152344 125.972656 238.1875 125.914062 238.203125 125.917969 C 238.300781 125.933594 238.398438 125.964844 238.492188 125.988281 C 238.640625 126.074219 238.757812 126.203125 238.617188 126.3125 C 238.480469 126.421875 238.171875 126.199219 238.15625 126 Z M 213.296875 112.839844 C 213.242188 112.757812 213.179688 112.679688 213.128906 112.59375 C 213.121094 112.578125 213.164062 112.523438 213.191406 112.515625 C 213.386719 112.464844 213.699219 112.679688 213.644531 112.84375 C 213.589844 113.011719 213.429688 112.949219 213.296875 112.839844 Z M 229.03125 109.539062 C 229.34375 109.492188 229.53125 109.621094 229.59375 109.933594 C 229.28125 109.980469 229.09375 109.847656 229.03125 109.539062 Z M 242.0625 116.601562 C 242.105469 116.628906 242.167969 116.652344 242.191406 116.695312 C 242.234375 116.777344 242.3125 116.898438 242.285156 116.957031 C 242.257812 117.011719 242.234375 117.039062 242.207031 117.050781 C 242.5625 117.335938 242.90625 117.425781 242.949219 117.800781 C 242.550781 117.773438 242.269531 117.609375 242.074219 116.996094 C 242.035156 116.953125 241.992188 116.902344 241.953125 116.886719 C 241.796875 116.832031 241.726562 116.695312 241.789062 116.558594 C 241.800781 116.53125 241.96875 116.582031 242.0625 116.601562 Z M 201.488281 150.878906 C 201.484375 150.847656 201.519531 150.820312 201.539062 150.789062 C 201.707031 150.722656 201.988281 150.910156 202.007812 151.109375 C 202.011719 151.140625 201.984375 151.1875 201.957031 151.199219 C 201.789062 151.269531 201.503906 151.078125 201.488281 150.878906 Z M 238.351562 123.902344 C 238.347656 123.886719 238.386719 123.832031 238.417969 123.824219 C 238.609375 123.773438 238.921875 123.988281 238.867188 124.152344 C 238.8125 124.320312 238.652344 124.257812 238.519531 124.148438 C 238.464844 124.070312 238.402344 123.988281 238.351562 123.902344 Z M 221.210938 111.128906 C 221.523438 111.082031 221.710938 111.210938 221.773438 111.523438 C 221.460938 111.570312 221.273438 111.441406 221.210938 111.128906 Z M 213.472656 122.804688 C 213.789062 122.753906 213.976562 122.886719 214.039062 123.199219 C 213.726562 123.246094 213.539062 123.113281 213.472656 122.804688 Z M 213.140625 126.28125 C 212.828125 126.332031 212.640625 126.199219 212.578125 125.886719 C 212.890625 125.839844 213.078125 125.972656 213.140625 126.28125 Z M 222.699219 132.902344 C 222.699219 132.933594 222.667969 132.976562 222.636719 132.984375 C 222.445312 133.035156 222.167969 132.835938 222.175781 132.652344 C 222.195312 132.625 222.210938 132.582031 222.242188 132.574219 C 222.433594 132.523438 222.710938 132.722656 222.699219 132.902344 Z M 218.039062 129.511719 C 217.886719 129.457031 217.8125 129.320312 217.875 129.183594 C 217.886719 129.15625 218.054688 129.207031 218.148438 129.222656 C 218.191406 129.253906 218.253906 129.277344 218.277344 129.316406 C 218.320312 129.402344 218.398438 129.523438 218.371094 129.582031 C 218.253906 129.839844 218.144531 129.550781 218.039062 129.511719 Z M 232.863281 129.355469 C 232.886719 129.328125 232.902344 129.285156 232.933594 129.277344 C 233.125 129.222656 233.402344 129.421875 233.390625 129.605469 C 233.390625 129.636719 233.355469 129.675781 233.328125 129.683594 C 233.136719 129.734375 232.859375 129.535156 232.863281 129.355469 Z M 199.925781 128.875 C 199.949219 129.09375 199.800781 129.222656 199.5625 129.226562 C 199.535156 129.128906 199.5 129.03125 199.484375 128.933594 C 199.457031 128.804688 199.445312 128.675781 199.425781 128.542969 C 199.710938 128.542969 199.90625 128.632812 199.925781 128.875 Z M 240.769531 114.449219 C 240.753906 114.234375 240.902344 114.105469 241.160156 114.105469 C 241.179688 114.203125 241.199219 114.300781 241.21875 114.402344 C 241.238281 114.527344 241.253906 114.65625 241.269531 114.789062 C 240.984375 114.78125 240.785156 114.695312 240.769531 114.449219 Z M 227.152344 108.035156 C 227.003906 108.210938 226.828125 108.226562 226.625 108.042969 C 226.511719 107.910156 226.453125 107.789062 226.574219 107.640625 C 226.722656 107.464844 226.90625 107.445312 227.101562 107.636719 C 227.226562 107.757812 227.273438 107.890625 227.152344 108.035156 Z M 215.679688 122.597656 C 216.078125 122.496094 216.421875 122.828125 216.722656 122.65625 C 216.625 123.25 216.558594 123.285156 216.097656 122.960938 C 215.972656 122.875 215.863281 122.757812 215.679688 122.597656 Z M 214.890625 120.894531 C 214.570312 120.792969 214.285156 120.5625 213.984375 120.667969 C 213.972656 120.671875 213.839844 120.496094 213.859375 120.472656 C 213.945312 120.371094 214.085938 120.191406 214.167969 120.21875 C 214.460938 120.3125 214.78125 120.429688 214.890625 120.894531 Z M 232.914062 121.667969 C 232.679688 121.28125 232.542969 121.066406 232.375 120.792969 C 232.824219 120.824219 232.996094 121.074219 232.949219 121.050781 C 233.1875 121.4375 233.320312 121.65625 233.488281 121.925781 C 233.042969 121.894531 232.867188 121.644531 232.914062 121.667969 Z M 234.742188 112.167969 C 234.542969 112.453125 234.054688 112.335938 233.902344 112.730469 C 233.808594 112.972656 233.578125 112.949219 233.394531 112.769531 C 233.265625 112.644531 233.199219 112.5 233.390625 112.328125 C 233.429688 112 233.796875 112.027344 234.0625 111.898438 C 234.367188 111.75 234.359375 111.269531 234.769531 111.160156 C 235.003906 111.097656 235.203125 110.949219 235.433594 110.875 C 235.488281 110.859375 235.613281 110.953125 235.683594 111.03125 C 235.707031 111.027344 235.726562 111.027344 235.75 111.019531 C 235.800781 111.121094 235.855469 111.230469 235.90625 111.332031 C 235.832031 111.347656 235.722656 111.394531 235.691406 111.363281 C 235.675781 111.34375 235.660156 111.316406 235.644531 111.292969 C 235.554688 111.3125 235.425781 111.285156 235.382812 111.335938 C 235.152344 111.597656 234.945312 111.882812 234.742188 112.167969 Z M 211.144531 128.566406 C 211.246094 128.515625 211.351562 128.464844 211.457031 128.414062 C 211.472656 128.488281 211.519531 128.601562 211.492188 128.628906 C 211.40625 128.703125 211.292969 128.746094 211.1875 128.800781 C 211.175781 128.726562 211.160156 128.65625 211.144531 128.566406 Z M 213.347656 127.429688 C 213.316406 127.320312 213.316406 127.195312 213.328125 127.078125 C 213.332031 127.058594 213.457031 127.054688 213.535156 127.042969 C 213.566406 127.15625 213.617188 127.269531 213.628906 127.382812 C 213.632812 127.4375 213.5625 127.535156 213.511719 127.542969 C 213.464844 127.550781 213.363281 127.484375 213.347656 127.429688 Z M 212.730469 127.914062 C 212.84375 127.882812 212.957031 127.832031 213.070312 127.828125 C 213.125 127.824219 213.226562 127.894531 213.234375 127.941406 C 213.242188 127.992188 213.175781 128.089844 213.121094 128.105469 C 213.011719 128.136719 212.886719 128.132812 212.769531 128.121094 C 212.75 128.117188 212.742188 127.988281 212.730469 127.914062 Z M 225.585938 118.191406 C 225.570312 118.308594 225.570312 118.429688 225.527344 118.535156 C 225.511719 118.574219 225.390625 118.5625 225.316406 118.578125 C 225.328125 118.460938 225.339844 118.34375 225.351562 118.230469 C 225.441406 118.214844 225.511719 118.203125 225.585938 118.191406 Z M 225.761719 115.441406 C 225.742188 115.558594 225.746094 115.679688 225.703125 115.785156 C 225.6875 115.824219 225.5625 115.816406 225.492188 115.828125 C 225.503906 115.710938 225.515625 115.59375 225.527344 115.480469 C 225.613281 115.46875 225.6875 115.453125 225.761719 115.441406 Z M 215.820312 118.832031 C 215.832031 118.71875 215.847656 118.601562 215.855469 118.488281 C 215.945312 118.472656 216.019531 118.460938 216.09375 118.445312 C 216.074219 118.5625 216.078125 118.6875 216.035156 118.792969 C 216.019531 118.828125 215.894531 118.820312 215.820312 118.832031 Z M 227.136719 126.546875 C 227.21875 126.46875 227.335938 126.429688 227.4375 126.375 C 227.453125 126.445312 227.464844 126.519531 227.480469 126.609375 C 227.378906 126.65625 227.273438 126.707031 227.167969 126.761719 C 227.15625 126.6875 227.105469 126.574219 227.136719 126.546875 Z M 217.933594 121.070312 C 217.851562 121.148438 217.734375 121.191406 217.632812 121.246094 C 217.617188 121.171875 217.605469 121.097656 217.589844 121.011719 C 217.691406 120.960938 217.796875 120.910156 217.902344 120.859375 C 217.914062 120.933594 217.964844 121.042969 217.933594 121.070312 Z M 224.117188 119.460938 C 224.128906 119.34375 224.140625 119.226562 224.152344 119.113281 C 224.238281 119.101562 224.3125 119.085938 224.386719 119.074219 C 224.371094 119.191406 224.371094 119.316406 224.328125 119.417969 C 224.3125 119.457031 224.191406 119.449219 224.117188 119.460938 Z M 202.644531 150.773438 C 202.726562 150.699219 202.84375 150.65625 202.945312 150.601562 C 202.960938 150.671875 202.972656 150.746094 202.988281 150.835938 C 202.886719 150.882812 202.78125 150.933594 202.675781 150.984375 C 202.664062 150.914062 202.613281 150.800781 202.644531 150.773438 Z M 202.730469 147.578125 C 202.714844 147.503906 202.667969 147.390625 202.695312 147.367188 C 202.78125 147.289062 202.894531 147.246094 203 147.191406 C 203.011719 147.265625 203.027344 147.339844 203.042969 147.425781 C 202.941406 147.476562 202.835938 147.527344 202.730469 147.578125 Z M 216.179688 144.730469 C 216.265625 144.652344 216.378906 144.609375 216.484375 144.554688 C 216.496094 144.628906 216.511719 144.703125 216.527344 144.789062 C 216.425781 144.839844 216.320312 144.890625 216.214844 144.941406 C 216.199219 144.867188 216.152344 144.753906 216.179688 144.730469 Z M 220.351562 147.054688 C 220.453125 147.003906 220.558594 146.953125 220.664062 146.902344 C 220.679688 146.976562 220.726562 147.089844 220.699219 147.117188 C 220.617188 147.191406 220.5 147.234375 220.394531 147.289062 C 220.382812 147.214844 220.367188 147.144531 220.351562 147.054688 Z M 218.8125 99.96875 C 218.738281 99.980469 218.628906 100.027344 218.601562 100 C 218.523438 99.914062 218.480469 99.796875 218.421875 99.695312 C 218.496094 99.683594 218.570312 99.667969 218.65625 99.652344 C 218.707031 99.757812 218.761719 99.863281 218.8125 99.96875 Z M 229.082031 111.257812 C 229.167969 111.183594 229.28125 111.140625 229.386719 111.085938 C 229.398438 111.160156 229.414062 111.230469 229.429688 111.320312 C 229.328125 111.367188 229.222656 111.417969 229.117188 111.472656 C 229.101562 111.398438 229.054688 111.285156 229.082031 111.257812 Z M 235.375 115.84375 C 235.363281 115.769531 235.3125 115.65625 235.34375 115.632812 C 235.425781 115.554688 235.542969 115.511719 235.644531 115.457031 C 235.660156 115.53125 235.671875 115.605469 235.6875 115.691406 C 235.585938 115.742188 235.480469 115.792969 235.375 115.84375 Z M 228.707031 114.261719 C 228.796875 114.246094 228.871094 114.234375 228.941406 114.21875 C 228.925781 114.335938 228.925781 114.460938 228.882812 114.566406 C 228.867188 114.601562 228.746094 114.59375 228.671875 114.605469 C 228.683594 114.488281 228.695312 114.371094 228.707031 114.261719 Z M 233.382812 111.769531 C 233.398438 111.734375 233.519531 111.738281 233.59375 111.730469 C 233.582031 111.84375 233.570312 111.960938 233.558594 112.074219 C 233.472656 112.089844 233.398438 112.101562 233.324219 112.113281 C 233.339844 111.996094 233.339844 111.875 233.382812 111.769531 Z M 232.082031 112.765625 C 232.183594 112.714844 232.289062 112.664062 232.394531 112.613281 C 232.40625 112.683594 232.457031 112.796875 232.429688 112.824219 C 232.34375 112.902344 232.226562 112.941406 232.125 113 C 232.109375 112.925781 232.097656 112.851562 232.082031 112.765625 Z M 193.511719 164.105469 C 193.523438 163.988281 193.535156 163.871094 193.546875 163.757812 C 193.636719 163.742188 193.707031 163.730469 193.78125 163.71875 C 193.765625 163.835938 193.765625 163.957031 193.722656 164.0625 C 193.710938 164.097656 193.585938 164.09375 193.511719 164.105469 Z M 199.667969 156.816406 C 199.632812 156.800781 199.640625 156.679688 199.625 156.605469 C 199.742188 156.617188 199.859375 156.632812 199.972656 156.644531 C 199.988281 156.730469 200.003906 156.804688 200.015625 156.878906 C 199.898438 156.859375 199.777344 156.859375 199.667969 156.816406 Z M 219.472656 99.855469 C 219.929688 99.761719 220.191406 99.941406 220.257812 100.402344 C 219.800781 100.496094 219.542969 100.316406 219.472656 99.855469 Z M 208.839844 134.53125 C 208.722656 134.28125 208.980469 133.894531 209.277344 133.890625 C 209.324219 133.890625 209.394531 133.929688 209.414062 133.972656 C 209.539062 134.21875 209.277344 134.605469 208.980469 134.613281 C 208.933594 134.613281 208.886719 134.558594 208.839844 134.53125 Z M 237.949219 124.246094 C 237.496094 124.339844 237.234375 124.15625 237.167969 123.695312 C 237.621094 123.601562 237.882812 123.785156 237.949219 124.246094 Z M 216.933594 103.332031 C 216.730469 103.503906 216.304688 103.195312 216.292969 102.902344 C 216.289062 102.855469 216.347656 102.765625 216.371094 102.769531 C 216.511719 102.789062 216.648438 102.824219 216.78125 102.855469 C 216.988281 102.972656 217.144531 103.15625 216.933594 103.332031 Z M 222.25 114.90625 C 222.15625 114.976562 222.019531 115.070312 221.929688 115.046875 C 221.789062 115.007812 221.667969 114.878906 221.542969 114.792969 C 221.414062 114.703125 221.277344 114.625 221.167969 114.519531 C 221.121094 114.476562 221.097656 114.328125 221.125 114.304688 C 221.21875 114.234375 221.378906 114.128906 221.441406 114.164062 C 221.714844 114.3125 221.964844 114.5 222.207031 114.691406 C 222.253906 114.726562 222.277344 114.882812 222.25 114.90625 Z M 212.402344 140.839844 C 212.421875 140.804688 212.707031 140.84375 212.726562 140.898438 C 212.832031 141.175781 212.886719 141.46875 212.960938 141.757812 C 212.582031 141.820312 212.285156 141.871094 211.878906 141.941406 C 211.859375 141.367188 212.222656 141.152344 212.402344 140.839844 Z M 211.472656 139.558594 C 211.542969 139.945312 211.605469 140.28125 211.675781 140.667969 C 211.902344 140.519531 212.09375 140.460938 212.121094 140.359375 C 212.207031 140.019531 212.210938 139.65625 212.296875 139.3125 C 212.363281 139.039062 212.761719 138.894531 212.636719 138.527344 C 212.625 138.484375 212.554688 138.460938 212.511719 138.433594 C 211.949219 138.632812 211.90625 139.273438 211.472656 139.558594 " fill-opacity="1" fill-rule="nonzero"/></g></g></g><path stroke-linecap="round" transform="matrix(0.75, 0, 0, 0.75, 72.767256, 248.204017)" fill="none" stroke-linejoin="miter" d="M 4.497826 4.498812 L 90.279082 4.498812 " stroke="#e4c590" stroke-width="9" stroke-opacity="1" stroke-miterlimit="4"/><path stroke-linecap="round" transform="matrix(0.75, 0, 0, 0.75, 219.004459, 194.605622)" fill="none" stroke-linejoin="miter" d="M 4.499263 4.499796 L 162.889899 4.499796 " stroke="#e4c590" stroke-width="9" stroke-opacity="1" stroke-miterlimit="4"/><g fill="#e4c590" fill-opacity="1"><g transform="translate(120.275921, 276.361271)"><g><path d="M 1.859375 0 L 1.859375 -12.8125 L 6.75 -12.8125 C 7.644531 -12.8125 8.421875 -12.640625 9.078125 -12.296875 C 9.734375 -11.960938 10.242188 -11.488281 10.609375 -10.875 C 10.972656 -10.269531 11.15625 -9.539062 11.15625 -8.6875 C 11.15625 -7.65625 10.882812 -6.800781 10.34375 -6.125 C 9.8125 -5.445312 9.078125 -4.988281 8.140625 -4.75 L 11.359375 0 L 9.421875 0 L 6.296875 -4.59375 L 3.46875 -4.59375 L 3.46875 0 Z M 3.46875 -6.125 L 6.5625 -6.125 C 7.507812 -6.125 8.238281 -6.347656 8.75 -6.796875 C 9.257812 -7.242188 9.515625 -7.875 9.515625 -8.6875 C 9.515625 -9.507812 9.257812 -10.144531 8.75 -10.59375 C 8.238281 -11.039062 7.507812 -11.265625 6.5625 -11.265625 L 3.46875 -11.265625 Z M 3.46875 -6.125 "/></g></g></g><g fill="#e4c590" fill-opacity="1"><g transform="translate(132.733467, 276.361271)"><g><path d="M 1.859375 0 L 1.859375 -12.8125 L 9.640625 -12.8125 L 9.640625 -11.3125 L 3.46875 -11.3125 L 3.46875 -7.265625 L 9.1875 -7.265625 L 9.1875 -5.78125 L 3.46875 -5.78125 L 3.46875 -1.5 L 9.84375 -1.5 L 9.84375 0 Z M 1.859375 0 "/></g></g></g><g fill="#e4c590" fill-opacity="1"><g transform="translate(143.764163, 276.361271)"><g><path d="M 6.125 0.234375 C 5.101562 0.234375 4.21875 0.0625 3.46875 -0.28125 C 2.71875 -0.632812 2.132812 -1.125 1.71875 -1.75 C 1.3125 -2.375 1.101562 -3.101562 1.09375 -3.9375 L 2.703125 -3.9375 C 2.734375 -3.113281 3.0625 -2.46875 3.6875 -2 C 4.3125 -1.53125 5.125 -1.296875 6.125 -1.296875 C 7.03125 -1.296875 7.75 -1.472656 8.28125 -1.828125 C 8.8125 -2.179688 9.078125 -2.675781 9.078125 -3.3125 C 9.078125 -3.90625 8.816406 -4.378906 8.296875 -4.734375 C 7.785156 -5.097656 6.953125 -5.414062 5.796875 -5.6875 C 4.222656 -6.0625 3.070312 -6.546875 2.34375 -7.140625 C 1.613281 -7.734375 1.25 -8.523438 1.25 -9.515625 C 1.25 -10.597656 1.660156 -11.457031 2.484375 -12.09375 C 3.304688 -12.726562 4.414062 -13.046875 5.8125 -13.046875 C 7.257812 -13.046875 8.398438 -12.6875 9.234375 -11.96875 C 10.066406 -11.25 10.488281 -10.265625 10.5 -9.015625 L 8.90625 -9.015625 C 8.894531 -9.785156 8.613281 -10.394531 8.0625 -10.84375 C 7.507812 -11.289062 6.757812 -11.515625 5.8125 -11.515625 C 4.90625 -11.515625 4.191406 -11.332031 3.671875 -10.96875 C 3.148438 -10.601562 2.890625 -10.117188 2.890625 -9.515625 C 2.890625 -8.992188 3.128906 -8.550781 3.609375 -8.1875 C 4.097656 -7.820312 4.960938 -7.488281 6.203125 -7.1875 C 7.835938 -6.789062 9 -6.289062 9.6875 -5.6875 C 10.382812 -5.082031 10.734375 -4.304688 10.734375 -3.359375 C 10.734375 -2.253906 10.316406 -1.378906 9.484375 -0.734375 C 8.648438 -0.0859375 7.53125 0.234375 6.125 0.234375 Z M 6.125 0.234375 "/></g></g></g><g fill="#e4c590" fill-opacity="1"><g transform="translate(155.599745, 276.361271)"><g><path d="M 4.953125 0 L 4.953125 -11.265625 L 0.625 -11.265625 L 0.625 -12.8125 L 10.890625 -12.8125 L 10.890625 -11.265625 L 6.5625 -11.265625 L 6.5625 0 Z M 4.953125 0 "/></g></g></g><g fill="#e4c590" fill-opacity="1"><g transform="translate(167.124345, 276.361271)"><g><path d="M 0.3125 0 L 5.578125 -12.8125 L 7.078125 -12.8125 L 12.34375 0 L 10.65625 0 L 9.4375 -2.90625 L 3.203125 -2.90625 L 2.03125 0 Z M 3.828125 -4.40625 L 8.84375 -4.40625 L 6.328125 -10.5625 Z M 3.828125 -4.40625 "/></g></g></g><g fill="#e4c590" fill-opacity="1"><g transform="translate(179.783112, 276.361271)"><g><path d="M 6.65625 0.21875 C 5.113281 0.21875 3.90625 -0.257812 3.03125 -1.21875 C 2.15625 -2.1875 1.71875 -3.519531 1.71875 -5.21875 L 1.71875 -12.8125 L 3.3125 -12.8125 L 3.3125 -5.328125 C 3.3125 -4.015625 3.597656 -3.023438 4.171875 -2.359375 C 4.742188 -1.691406 5.570312 -1.359375 6.65625 -1.359375 C 8.894531 -1.359375 10.015625 -2.679688 10.015625 -5.328125 L 10.015625 -12.8125 L 11.625 -12.8125 L 11.625 -5.21875 C 11.625 -3.519531 11.179688 -2.1875 10.296875 -1.21875 C 9.421875 -0.257812 8.207031 0.21875 6.65625 0.21875 Z M 6.65625 0.21875 "/></g></g></g><g fill="#e4c590" fill-opacity="1"><g transform="translate(193.118728, 276.361271)"><g><path d="M 1.859375 0 L 1.859375 -12.8125 L 6.75 -12.8125 C 7.644531 -12.8125 8.421875 -12.640625 9.078125 -12.296875 C 9.734375 -11.960938 10.242188 -11.488281 10.609375 -10.875 C 10.972656 -10.269531 11.15625 -9.539062 11.15625 -8.6875 C 11.15625 -7.65625 10.882812 -6.800781 10.34375 -6.125 C 9.8125 -5.445312 9.078125 -4.988281 8.140625 -4.75 L 11.359375 0 L 9.421875 0 L 6.296875 -4.59375 L 3.46875 -4.59375 L 3.46875 0 Z M 3.46875 -6.125 L 6.5625 -6.125 C 7.507812 -6.125 8.238281 -6.347656 8.75 -6.796875 C 9.257812 -7.242188 9.515625 -7.875 9.515625 -8.6875 C 9.515625 -9.507812 9.257812 -10.144531 8.75 -10.59375 C 8.238281 -11.039062 7.507812 -11.265625 6.5625 -11.265625 L 3.46875 -11.265625 Z M 3.46875 -6.125 "/></g></g></g><g fill="#e4c590" fill-opacity="1"><g transform="translate(205.576274, 276.361271)"><g><path d="M 0.3125 0 L 5.578125 -12.8125 L 7.078125 -12.8125 L 12.34375 0 L 10.65625 0 L 9.4375 -2.90625 L 3.203125 -2.90625 L 2.03125 0 Z M 3.828125 -4.40625 L 8.84375 -4.40625 L 6.328125 -10.5625 Z M 3.828125 -4.40625 "/></g></g></g><g fill="#e4c590" fill-opacity="1"><g transform="translate(218.235041, 276.361271)"><g><path d="M 1.859375 0 L 1.859375 -12.8125 L 3.390625 -12.8125 L 10.46875 -2.78125 L 10.46875 -12.8125 L 12.046875 -12.8125 L 12.046875 0 L 10.53125 0 L 3.453125 -10.03125 L 3.453125 0 Z M 1.859375 0 "/></g></g></g><g fill="#e4c590" fill-opacity="1"><g transform="translate(232.137734, 276.361271)"><g><path d="M 4.953125 0 L 4.953125 -11.265625 L 0.625 -11.265625 L 0.625 -12.8125 L 10.890625 -12.8125 L 10.890625 -11.265625 L 6.5625 -11.265625 L 6.5625 0 Z M 4.953125 0 "/></g></g></g><g fill="#e4c590" fill-opacity="1"><g transform="translate(243.662334, 276.361271)"><g><path d="M 1.859375 0 L 1.859375 -12.8125 L 9.640625 -12.8125 L 9.640625 -11.3125 L 3.46875 -11.3125 L 3.46875 -7.265625 L 9.1875 -7.265625 L 9.1875 -5.78125 L 3.46875 -5.78125 L 3.46875 -1.5 L 9.84375 -1.5 L 9.84375 0 Z M 1.859375 0 "/></g></g></g><g clip-path="url(#90f4d57c33)"><path fill="#e4c590" d="M 277.398438 167.539062 C 277.503906 160.167969 274.222656 153.542969 267.492188 150.117188 C 263.359375 148.011719 258.097656 149.542969 255.527344 153.097656 C 250.117188 160.574219 258.28125 167.300781 265.230469 169.023438 C 268.757812 169.898438 272.484375 170.082031 275.390625 169.746094 C 274.597656 175.152344 271.636719 181.136719 267.304688 184.46875 C 258.347656 191.355469 244.089844 190.65625 235.003906 184.320312 C 228.894531 180.0625 224.414062 173.96875 221.339844 167.242188 L 220.5625 165.542969 L 220.8125 167.394531 C 221.222656 170.429688 222.808594 173.429688 224.519531 175.925781 C 226.058594 178.179688 227.882812 180.292969 229.808594 182.222656 C 231.039062 183.453125 232.511719 184.84375 233.941406 185.84375 C 244.039062 192.882812 258.960938 194.578125 268.886719 186.304688 C 273.992188 182.046875 276.734375 175.992188 277.300781 169.445312 C 282.625 168.277344 293.21875 163.199219 295.699219 153.96875 L 295.566406 154.175781 C 295.230469 154.71875 294.882812 155.253906 294.515625 155.777344 C 290.347656 161.792969 284.59375 166.046875 277.398438 167.539062 Z M 275.535156 167.855469 C 272.441406 168.273438 268.628906 167.921875 265.640625 167.195312 C 260.179688 165.867188 252.335938 160.113281 256.332031 153.75 C 258.28125 150.648438 263.238281 150.039062 266.648438 151.773438 C 272.867188 154.941406 275.730469 161.070312 275.535156 167.855469 Z M 275.535156 167.855469 " fill-opacity="1" fill-rule="evenodd"/></g><g clip-path="url(#9282275a3b)"><path fill="#e4c590" d="M 316.640625 189.539062 C 324.453125 193.378906 335.074219 191.628906 339.925781 183.984375 C 344.519531 176.75 343.476562 166 338 159.503906 C 334.855469 155.773438 330.585938 153.503906 325.867188 152.429688 C 320.9375 151.3125 315.882812 151.699219 311.085938 153.117188 C 297.183594 157.230469 286.660156 170.449219 270.445312 176.355469 C 254.214844 182.265625 237.507812 180.449219 221.238281 162.816406 L 220.726562 162.261719 L 220.960938 162.910156 C 221.347656 163.972656 224.613281 167.703125 225.546875 168.550781 C 241.359375 182.875 256.449219 184.839844 270.828125 179.992188 C 288.566406 174.011719 298.671875 158.90625 311.507812 154.820312 C 315.964844 153.40625 320.703125 153.023438 325.488281 154.109375 C 329.832031 155.097656 333.785156 157.171875 336.683594 160.609375 C 341.679688 166.535156 342.664062 176.457031 338.46875 183.0625 C 334.09375 189.957031 324.414062 191.445312 317.398438 187.996094 C 314.175781 186.410156 311.539062 183.796875 310.445312 180.324219 C 310.261719 179.742188 310.136719 179.15625 310.023438 178.558594 L 309.890625 177.84375 L 309.753906 178.558594 C 308.808594 183.417969 312.570312 187.539062 316.640625 189.539062 Z M 316.640625 189.539062 " fill-opacity="1" fill-rule="evenodd"/></g><path fill="#e4c590" d="M 327.90625 174.824219 C 328.53125 174.527344 329.101562 174.117188 329.589844 173.621094 C 331.507812 171.679688 332.105469 168.53125 330.917969 166.054688 C 330.625 165.441406 330.234375 164.886719 329.75 164.410156 C 325.917969 160.621094 319.953125 161.667969 316.390625 165.269531 C 313.761719 167.933594 312.71875 171.78125 313.5 175.429688 C 314.148438 178.457031 315.953125 181.203125 318.324219 183.164062 C 320.695312 185.128906 323.699219 186.21875 326.78125 186.207031 C 329.96875 186.191406 332.917969 185.023438 335.441406 183.117188 C 338.222656 181.019531 340.277344 178.070312 341.125 174.675781 C 341.988281 171.214844 341.503906 167.695312 340.117188 164.441406 C 338.976562 161.761719 337.234375 159.382812 335.078125 157.433594 C 332.832031 155.402344 330.1875 153.890625 327.339844 152.882812 L 327.207031 152.835938 L 326.683594 154.328125 L 326.8125 154.371094 C 329.464844 155.308594 331.925781 156.71875 334.019531 158.605469 C 336.003906 160.398438 337.613281 162.59375 338.664062 165.058594 C 339.914062 167.992188 340.371094 171.175781 339.589844 174.296875 C 338.832031 177.335938 336.980469 179.976562 334.488281 181.855469 C 332.242188 183.550781 329.613281 184.617188 326.777344 184.628906 C 324.0625 184.640625 321.417969 183.675781 319.332031 181.945312 C 317.234375 180.207031 315.621094 177.78125 315.046875 175.101562 C 314.382812 172 315.140625 168.582031 317.511719 166.382812 C 320.402344 163.703125 326.285156 163.617188 328.121094 167.5 C 329.175781 169.738281 329.105469 172.527344 327.730469 174.625 L 327.460938 175.039062 Z M 327.90625 174.824219 " fill-opacity="1" fill-rule="evenodd"/><path stroke-linecap="round" transform="matrix(0.75, 0, 0, 0.75, 25.638101, 194.605622)" fill="none" stroke-linejoin="miter" d="M 4.498157 4.499796 L 162.888793 4.499796 " stroke="#e4c590" stroke-width="9" stroke-opacity="1" stroke-miterlimit="4"/><g clip-path="url(#56714f3ee5)"><path fill="#e4c590" d="M 92.777344 167.539062 C 92.671875 160.167969 95.953125 153.542969 102.683594 150.117188 C 106.816406 148.011719 112.078125 149.542969 114.648438 153.097656 C 120.058594 160.574219 111.894531 167.300781 104.945312 169.023438 C 101.417969 169.898438 97.691406 170.082031 94.785156 169.746094 C 95.578125 175.152344 98.539062 181.136719 102.871094 184.46875 C 111.828125 191.355469 126.085938 190.65625 135.171875 184.320312 C 141.28125 180.0625 145.761719 173.96875 148.835938 167.242188 L 149.609375 165.542969 L 149.363281 167.394531 C 148.953125 170.429688 147.367188 173.429688 145.65625 175.925781 C 144.117188 178.179688 142.292969 180.292969 140.367188 182.222656 C 139.136719 183.453125 137.664062 184.84375 136.234375 185.84375 C 126.136719 192.882812 111.214844 194.578125 101.289062 186.304688 C 96.183594 182.046875 93.441406 175.992188 92.875 169.445312 C 87.550781 168.277344 76.957031 163.199219 74.476562 153.96875 L 74.609375 154.175781 C 74.945312 154.71875 75.292969 155.253906 75.660156 155.777344 C 79.828125 161.792969 85.582031 166.046875 92.777344 167.539062 Z M 94.640625 167.855469 C 97.734375 168.273438 101.546875 167.921875 104.535156 167.195312 C 109.996094 165.867188 117.839844 160.113281 113.84375 153.75 C 111.894531 150.648438 106.9375 150.039062 103.527344 151.773438 C 97.308594 154.941406 94.445312 161.070312 94.640625 167.855469 Z M 94.640625 167.855469 " fill-opacity="1" fill-rule="evenodd"/></g><g clip-path="url(#6cd9fb9c5e)"><path fill="#e4c590" d="M 53.535156 189.539062 C 45.722656 193.378906 35.101562 191.628906 30.25 183.984375 C 25.65625 176.75 26.699219 166 32.175781 159.503906 C 35.320312 155.773438 39.589844 153.503906 44.308594 152.429688 C 49.238281 151.3125 54.292969 151.699219 59.089844 153.117188 C 72.992188 157.230469 83.515625 170.449219 99.730469 176.355469 C 115.960938 182.265625 132.667969 180.449219 148.9375 162.816406 L 149.449219 162.261719 L 149.214844 162.910156 C 148.828125 163.972656 145.5625 167.703125 144.628906 168.550781 C 128.816406 182.875 113.726562 184.839844 99.347656 179.992188 C 81.609375 174.011719 71.503906 158.90625 58.667969 154.820312 C 54.210938 153.40625 49.472656 153.023438 44.6875 154.109375 C 40.34375 155.097656 36.390625 157.171875 33.492188 160.609375 C 28.496094 166.535156 27.511719 176.457031 31.703125 183.0625 C 36.082031 189.957031 45.761719 191.445312 52.777344 187.996094 C 56 186.410156 58.636719 183.796875 59.730469 180.324219 C 59.914062 179.742188 60.039062 179.15625 60.152344 178.558594 L 60.285156 177.84375 L 60.421875 178.558594 C 61.367188 183.417969 57.605469 187.539062 53.535156 189.539062 Z M 53.535156 189.539062 " fill-opacity="1" fill-rule="evenodd"/></g><path fill="#e4c590" d="M 42.269531 174.824219 C 41.644531 174.527344 41.074219 174.117188 40.585938 173.621094 C 38.667969 171.679688 38.070312 168.53125 39.257812 166.054688 C 39.550781 165.441406 39.941406 164.886719 40.425781 164.410156 C 44.257812 160.621094 50.222656 161.667969 53.785156 165.269531 C 56.414062 167.933594 57.457031 171.78125 56.675781 175.429688 C 56.027344 178.457031 54.222656 181.203125 51.851562 183.164062 C 49.480469 185.128906 46.476562 186.21875 43.394531 186.207031 C 40.207031 186.191406 37.257812 185.023438 34.734375 183.117188 C 31.953125 181.019531 29.898438 178.070312 29.050781 174.675781 C 28.1875 171.214844 28.671875 167.695312 30.058594 164.441406 C 31.199219 161.761719 32.941406 159.382812 35.097656 157.433594 C 37.34375 155.402344 39.988281 153.890625 42.835938 152.882812 L 42.96875 152.835938 L 43.492188 154.328125 L 43.363281 154.371094 C 40.710938 155.308594 38.25 156.71875 36.15625 158.605469 C 34.167969 160.398438 32.5625 162.59375 31.511719 165.058594 C 30.261719 167.992188 29.804688 171.175781 30.585938 174.296875 C 31.34375 177.335938 33.195312 179.976562 35.6875 181.855469 C 37.933594 183.550781 40.5625 184.617188 43.398438 184.628906 C 46.113281 184.640625 48.757812 183.675781 50.84375 181.945312 C 52.941406 180.207031 54.554688 177.78125 55.128906 175.101562 C 55.792969 172 55.035156 168.582031 52.664062 166.382812 C 49.773438 163.703125 43.890625 163.617188 42.054688 167.5 C 41 169.738281 41.070312 172.527344 42.445312 174.625 L 42.714844 175.039062 Z M 42.269531 174.824219 " fill-opacity="1" fill-rule="evenodd"/></svg>